<svg id="图层_2" data-name="图层 2" xmlns="http://www.w3.org/2000/svg" viewBox="0 0 16 16" width="16" height="16"><defs><style>.cls-1{fill:#040000;}</style></defs><title>access</title><g id="realization"><path class="cls-1" d="M3.51,13.36,3,12.83l.57-.56.52.53ZM5,11.89l-.53-.53.57-.57.53.54Zm1.5-1.47L6,9.88l.57-.56.53.53ZM8,8.94l-.52-.53L8,7.84l.53.54ZM9.5,7.47,9,6.93l.57-.56.53.54ZM11,6l-.52-.53L11,4.9l.52.53Zm1.5-1.47L12,4l.57-.56.53.54Z"/><polygon class="cls-1" points="13.16 6.95 12.41 6.95 12.41 3.94 9.4 3.94 9.4 3.19 13.16 3.19 13.16 6.95"/></g></svg>
