<?xml version="1.0" encoding="UTF-8"?>
<svg width="11px" height="11px" viewBox="0 0 11 11" version="1.1" xmlns="http://www.w3.org/2000/svg" xmlns:xlink="http://www.w3.org/1999/xlink">
    <!-- Generator: Sketch 63 (92445) - https://sketch.com -->
    <title>assessment</title>
    <desc>Created with Sketch.</desc>
    <g id="页面-1" stroke="none" stroke-width="1" fill="none" fill-rule="evenodd">
        <g id="画板" transform="translate(-112.000000, -258.000000)">
            <g id="assessment" transform="translate(112.000000, 258.000000)">
                <path d="M6.37,1.53 C7.93544379,1.55232179 9.26831614,2.67470181 9.55676928,4.21350242 C9.84522242,5.75230302 9.00934467,7.28122225 7.55826618,7.86900088 C6.10718768,8.45677951 4.44290829,7.94058216 3.5791346,6.63482279 C2.71536092,5.32906342 2.89138867,3.59548336 4,2.49 C4.61056686,1.85686803 5.4504507,1.49640286 6.33,1.49 M6.33,0.739974492 C4.43195631,0.733263823 2.79052271,2.06135451 2.40095993,3.9190025 C2.01139715,5.77665049 2.98098401,7.65229185 4.72182482,8.40865716 C6.46266563,9.16502248 8.49536311,8.59382191 9.58741905,7.04139509 C10.679475,5.48896826 10.5301562,3.38282652 9.23,2 C8.4763297,1.22992806 7.44745436,0.791037178 6.37,0.78 L6.33,0.739974492 Z" id="形状" fill="#030000" fill-rule="nonzero"></path>
                <line x1="0.48" y1="10.72" x2="3.83" y2="7.36" id="路径" stroke="#030000" stroke-width="0.75"></line>
            </g>
        </g>
    </g>
</svg>