<?xml version="1.0" encoding="UTF-8"?>
<svg width="9px" height="9px" viewBox="0 0 9 9" version="1.1" xmlns="http://www.w3.org/2000/svg" xmlns:xlink="http://www.w3.org/1999/xlink">
    <!-- Generator: Sketch 63 (92445) - https://sketch.com -->
    <title>technology-event</title>
    <desc>Created with Sketch.</desc>
    <g id="页面-1" stroke="none" stroke-width="1" fill="none" fill-rule="evenodd">
        <g id="画板" transform="translate(-185.000000, -49.000000)" fill="#030000" fill-rule="nonzero">
            <g id="technology-event" transform="translate(185.000000, 49.000000)">
                <path d="M4.62,1.72 C6.31581399,1.68878476 7.76738978,2.92992501 8,4.61 C8.10142179,5.51794253 7.80619278,6.42549835 7.19,7.1 C6.5786246,7.77603102 5.71146302,8.16425817 4.8,8.17 L2.09,8.17 C2.89271258,7.25391862 3.31799407,6.06741901 3.28,4.85 C3.32488571,3.70820163 2.93945405,2.59116356 2.2,1.72 L4.62,1.72 M4.62,0.97 L0.53,0.97 C0.451992501,0.97 0.383995373,1.02309055 0.365075775,1.09876894 C0.346156177,1.17444733 0.381169854,1.25329059 0.45,1.29 C1.79769543,1.94874927 2.61786295,3.35249752 2.53,4.85 C2.59714478,6.41839997 1.74065242,7.88108556 0.34,8.59 C0.27507763,8.63284606 0.245022834,8.71254836 0.265489747,8.78759371 C0.28595666,8.86263905 0.352314268,8.91604706 0.43,8.92 L4.81,8.92 C5.93331581,8.91131359 7.00120695,8.43067788 7.75258298,7.59560427 C8.503959,6.76053066 8.86956015,5.64799394 8.76,4.53 C8.4719476,2.47531697 6.69438416,0.959665048 4.62,1 L4.62,0.97 Z" id="形状"></path>
            </g>
        </g>
    </g>
</svg>