<?xml version="1.0" encoding="UTF-8"?>
<svg width="13px" height="7px" viewBox="0 0 13 7" version="1.1" xmlns="http://www.w3.org/2000/svg" xmlns:xlink="http://www.w3.org/1999/xlink">
    <!-- Generator: Sketch 63 (92445) - https://sketch.com -->
    <title>stakeholder</title>
    <desc>Created with Sketch.</desc>
    <g id="页面-1" stroke="none" stroke-width="1" fill="none" fill-rule="evenodd">
        <g id="画板" transform="translate(-49.000000, -72.000000)" fill="#030000" fill-rule="nonzero">
            <g id="stakeholder" transform="translate(49.000000, 72.000000)">
                <path d="M9.24,1.73 C10.3445695,1.73 11.24,2.6254305 11.24,3.73 C11.24,4.8345695 10.3445695,5.73 9.24,5.73 L3,5.73 C1.8954305,5.73 1,4.8345695 1,3.73 C1,2.6254305 1.8954305,1.73 3,1.73 L9.2,1.73 M9.2,0.98 L3,0.98 C1.97247786,0.918178453 0.995416773,1.43124724 0.462974018,2.31222872 C-0.0694687363,3.1932102 -0.0694687363,4.2967898 0.462974018,5.17777128 C0.995416773,6.05875276 1.97247786,6.57182155 3,6.51 L9.2,6.51 C10.2275221,6.57182155 11.2045832,6.05875276 11.737026,5.17777128 C12.2694687,4.2967898 12.2694687,3.1932102 11.737026,2.31222872 C11.2045832,1.43124724 10.2275221,0.918178453 9.2,0.98 L9.2,0.98 Z" id="形状"></path>
                <path d="M9.24,1.73 C10.3445695,1.73 11.24,2.6254305 11.24,3.73 C11.24,4.8345695 10.3445695,5.73 9.24,5.73 C8.1354305,5.73 7.24,4.8345695 7.24,3.73 C7.24,2.6254305 8.1354305,1.73 9.24,1.73 M9.24,0.979981822 C8.11873845,0.975952098 7.1056309,1.64826841 6.67373494,2.68301946 C6.24183898,3.71777051 6.47635372,4.91083336 7.2677755,5.70512261 C8.05919728,6.49941186 9.25140418,6.73823992 10.2877105,6.31008909 C11.3240167,5.88193826 12,4.87126886 12,3.75 C11.9944913,2.22960079 10.7604092,0.99999002 9.24,1 L9.24,0.979981822 Z" id="形状"></path>
            </g>
        </g>
    </g>
</svg>