<?xml version="1.0" encoding="UTF-8"?>
<svg width="13px" height="10px" viewBox="0 0 13 10" version="1.1" xmlns="http://www.w3.org/2000/svg" xmlns:xlink="http://www.w3.org/1999/xlink">
    <!-- Generator: Sketch 63 (92445) - https://sketch.com -->
    <title>technology-collaboration</title>
    <desc>Created with Sketch.</desc>
    <g id="页面-1" stroke="none" stroke-width="1" fill="none" fill-rule="evenodd">
        <g id="画板" transform="translate(-209.000000, -49.000000)" fill="#030000" fill-rule="nonzero">
            <g id="technology-collaboration" transform="translate(209.000000, 49.000000)">
                <path d="M8.09,1.7 C9.91253967,1.7 11.39,3.17746033 11.39,5 C11.39,6.82253967 9.91253967,8.3 8.09,8.3 C6.26746033,8.3 4.79,6.82253967 4.79,5 C4.79,3.17746033 6.26746033,1.7 8.09,1.7 M8.09,0.95 C5.85324676,0.95 4.04,2.76324676 4.04,5 C4.04,7.23675324 5.85324676,9.05 8.09,9.05 C10.3267532,9.05 12.14,7.23675324 12.14,5 C12.1400836,3.93041388 11.7117996,2.9053469 10.950805,2.15374739 C10.1898105,1.40214788 9.15950255,0.98663017 8.09,1 L8.09,0.95 Z" id="形状"></path>
                <path d="M4.35,1.7 C6.17253967,1.7 7.65,3.17746033 7.65,5 C7.65,6.82253967 6.17253967,8.3 4.35,8.3 C2.52746033,8.3 1.05,6.82253967 1.05,5 C1.05,3.17746033 2.52746033,1.7 4.35,1.7 M4.35,0.95 C2.11324676,0.95 0.3,2.76324676 0.3,5 C0.3,7.23675324 2.11324676,9.05 4.35,9.05 C6.58675324,9.05 8.4,7.23675324 8.4,5 C8.40008356,3.93041388 7.97179955,2.9053469 7.21080505,2.15374739 C6.44981054,1.40214788 5.41950255,0.98663017 4.35,1 L4.35,0.95 Z" id="形状"></path>
            </g>
        </g>
    </g>
</svg>