<?xml version="1.0" encoding="UTF-8"?>
<svg width="7px" height="13px" viewBox="0 0 7 13" version="1.1" xmlns="http://www.w3.org/2000/svg" xmlns:xlink="http://www.w3.org/1999/xlink">
    <!-- Generator: Sketch 63 (92445) - https://sketch.com -->
    <title>business-actor</title>
    <desc>Created with Sketch.</desc>
    <g id="页面-1" stroke="none" stroke-width="1" fill="none" fill-rule="evenodd">
        <g id="画板" transform="translate(-79.000000, -252.000000)">
            <g id="business-actor" transform="translate(79.000000, 252.000000)">
                <path d="M3.24,0.87 C4.16654982,0.85375054 5.01076134,1.39992002 5.37571907,2.25172074 C5.7406768,3.10352146 5.55376855,4.0914787 4.90287133,4.75109329 C4.25197411,5.41070789 3.26659077,5.61074258 2.41001033,5.2571488 C1.55342988,4.90355503 0.996078037,4.066684 0.999979435,3.14 C1.0052474,1.90014063 2.00032015,0.891741009 3.24,0.87 M3.24,0.12 C1.58314575,0.12 0.24,1.46314575 0.24,3.12 C0.24,4.77685425 1.58314575,6.12 3.24,6.12 C4.89685425,6.12 6.24,4.77685425 6.24,3.12 C6.24,1.46314575 4.89685425,0.12 3.24,0.12 Z" id="形状" fill="#030000" fill-rule="nonzero"></path>
                <line x1="0.49" y1="7.11" x2="5.79" y2="7.11" id="路径" stroke="#030000" stroke-width="0.75"></line>
                <line x1="3.11" y1="5.73" x2="3.11" y2="9.75" id="路径" stroke="#030000" stroke-width="0.75" fill="#F9F5B8" fill-rule="nonzero"></line>
                <polyline id="路径" stroke="#030000" stroke-width="0.75" stroke-linecap="round" points="0 12.18 3.14 9.58 6.27 12.18"></polyline>
            </g>
        </g>
    </g>
</svg>