<?xml version="1.0" encoding="UTF-8"?>
<svg width="12px" height="12px" viewBox="0 0 12 12" version="1.1" xmlns="http://www.w3.org/2000/svg" xmlns:xlink="http://www.w3.org/1999/xlink">
    <!-- Generator: Sketch 63 (92445) - https://sketch.com -->
    <title>capability</title>
    <desc>Created with Sketch.</desc>
    <g id="页面-1" stroke="none" stroke-width="1" fill="none" fill-rule="evenodd">
        <g id="画板" transform="translate(-231.000000, -195.000000)" fill="#040000" fill-rule="nonzero">
            <g id="capability" transform="translate(231.000000, 195.000000)">
                <path d="M7.35,0.54 L7.35,3.88 L4,3.88 L4,7.46 L0.61,7.46 L0.61,11.46 L11.61,11.46 L11.61,0.46 L7.35,0.54 Z M8.1,1.29 L10.82,1.29 L10.82,3.88 L8.1,3.88 L8.1,1.29 Z M8.1,4.63 L10.82,4.63 L10.82,7.46 L8.1,7.46 L8.1,4.63 Z M4.71,5 L4.71,4.63 L7.35,4.63 L7.35,7.46 L4.71,7.46 L4.71,5 Z M7.35,8.24 L7.35,10.78 L4.71,10.78 L4.71,8.21 L7.35,8.24 Z M1.35,8.24 L4,8.24 L4,10.78 L1.36,10.78 L1.35,8.24 Z M8.09,10.78 L8.09,8.21 L10.81,8.21 L10.81,10.75 L8.09,10.78 Z" id="形状"></path>
            </g>
        </g>
    </g>
</svg>