<?xml version="1.0" encoding="UTF-8"?>
<svg width="12px" height="12px" viewBox="0 0 12 12" version="1.1" xmlns="http://www.w3.org/2000/svg" xmlns:xlink="http://www.w3.org/1999/xlink">
    <!-- Generator: Sketch 63 (92445) - https://sketch.com -->
    <title>communication-network</title>
    <desc>Created with Sketch.</desc>
    <g id="页面-1" stroke="none" stroke-width="1" fill="none" fill-rule="evenodd">
        <g id="画板" transform="translate(-199.000000, -195.000000)" fill="#030000" fill-rule="nonzero">
            <g id="communication-network" transform="translate(199.000000, 195.000000)">
                <path d="M8.70774897,3.52938785 L8.90296948,3.91060209 L8.32517577,7.78478298 L7.46288982,7.87 L7.46288982,8.49 L3.57116681,8.49 L3.1442715,8.06860724 L2.91251972,7.72574266 L3.49094463,3.79696052 L4.09614193,3.79696052 L4.411361,3.26 L8.44054099,3.26 L8.70774897,3.45313493 M8.99995529,3.26 L8.94949896,2.51 L4.58900206,2.51 L4.29193844,4.12892137 L2.71891477,3.52680361 L2.04405539,8.06860724 L2.91251972,8.18017033 L3.1442715,9.24 L7.36025097,9.24 L7.46288982,7.57280979 L9.0587766,7.96953351 L9.69091454,3.71524517 L8.99995529,3.26 Z" id="形状"></path>
                <path d="M10.07,1.45 C10.5317129,1.4254501 10.9618018,1.68465807 11.1557632,2.10437277 C11.3497246,2.52408747 11.2684229,3.0196228 10.9505162,3.35535604 C10.6326095,3.69108927 10.1422421,3.7992793 9.71257948,3.6284827 C9.28291683,3.4576861 9.00065222,3.04236462 9,2.58 C8.99733229,2.28122868 9.11415321,1.99377655 9.3244838,1.78156801 C9.53481438,1.56935948 9.82121677,1.44998809 10.12,1.45 M10.12,0.7 C9.08170467,0.7 8.24,1.54170467 8.24,2.58 C8.24,3.61829533 9.08170467,4.46 10.12,4.46 C11.1582953,4.46 12.0000001,3.61829533 12.0000001,2.58 C12.0001795,2.0726078 11.7952598,1.58668612 11.4318022,1.23264452 C11.0683446,0.878602919 10.5772128,0.686505494 10.07,0.7 L10.12,0.7 Z" id="形状"></path>
                <path d="M3.41,1.45 C4.03408177,1.45 4.54,1.95591823 4.54,2.58 C4.54,3.20408177 4.03408177,3.71 3.41,3.71 C2.78591823,3.71 2.28,3.20408177 2.28,2.58 C2.28,1.95591823 2.78591823,1.45 3.41,1.45 M3.41,0.7 C2.37170467,0.7 1.53,1.54170467 1.53,2.58 C1.53,3.61829533 2.37170467,4.46 3.41,4.46 C4.44829533,4.46 5.29,3.61829533 5.29,2.58 C5.29,2.081393 5.09192914,1.60320764 4.73936075,1.25063925 C4.38679236,0.89807086 3.908607,0.7 3.41,0.7 L3.41,0.7 Z" id="形状"></path>
                <path d="M1.93,8.11 C2.55408177,8.11 3.06,8.61591823 3.06,9.24 C3.06,9.86408177 2.55408177,10.37 1.93,10.37 C1.30591823,10.37 0.8,9.86408177 0.8,9.24 C0.8,8.61591823 1.30591823,8.11 1.93,8.11 M1.93,7.35997322 C1.16871406,7.35595055 0.480134714,7.81142147 0.185993001,8.51359903 C-0.108148712,9.2157766 0.0502183853,10.0260328 0.587099029,10.5657845 C1.12397967,11.1055361 1.93337974,11.2682223 2.63711607,10.9778297 C3.34085239,10.6874371 3.8,10.0012967 3.8,9.24 C3.8,8.20559741 2.96438796,7.36550214 1.93,7.35997322 Z" id="形状"></path>
                <path d="M8.53,7.89 C8.98884695,7.89007187 9.40209473,8.16760187 9.57576041,8.59231444 C9.74942608,9.017027 9.64902555,9.50458865 9.32168789,9.82613272 C8.99435024,10.1476768 8.50507359,10.2393556 8.08352967,10.058134 C7.66198574,9.87691248 7.39187882,9.45877508 7.4,9 C7.40543104,8.37818174 7.90818174,7.87543104 8.53,7.87 M8.53,7.12 C7.49170467,7.12 6.65,7.96170467 6.65,9 C6.65,10.0382953 7.49170467,10.88 8.53,10.88 C9.56829533,10.88 10.41,10.0382953 10.41,9 C10.41,7.96170467 9.56829533,7.12 8.53,7.12 L8.53,7.12 Z" id="形状"></path>
            </g>
        </g>
    </g>
</svg>