<?xml version="1.0" encoding="UTF-8"?>
<svg width="12px" height="12px" viewBox="0 0 12 12" version="1.1" xmlns="http://www.w3.org/2000/svg" xmlns:xlink="http://www.w3.org/1999/xlink">
    <!-- Generator: Sketch 63 (92445) - https://sketch.com -->
    <title>course-of-action</title>
    <desc>Created with Sketch.</desc>
    <g id="页面-1" stroke="none" stroke-width="1" fill="none" fill-rule="evenodd">
        <g id="画板" transform="translate(-105.000000, -199.000000)" fill="#040000" fill-rule="nonzero">
            <g id="course-of-action" transform="translate(105.000000, 199.000000)">
                <path d="M7.27,9.61 C4.77367293,9.61 2.75,7.58632707 2.75,5.09 C2.75,2.59367293 4.77367293,0.57 7.27,0.57 C9.76632707,0.57 11.79,2.59367293 11.79,5.09 C11.79,6.28877853 11.3137871,7.43845822 10.4661227,8.28612265 C9.61845822,9.13378708 8.46877853,9.61 7.27,9.61 Z M7.27,1.32 C5.74164183,1.30378309 4.35473425,2.21196075 3.75858574,3.61935147 C3.16243723,5.0267422 3.47503414,6.65480315 4.550028,7.74132509 C5.62502185,8.82784702 7.24965591,9.15779165 8.66332531,8.57668879 C10.0769947,7.99558594 10.999914,6.61844421 11,5.09 C10.9947192,3.02563062 9.33419561,1.34729981 7.27,1.32 Z" id="形状"></path>
                <path d="M7.27,7.61 C6.25075514,7.61 5.3318717,6.99602171 4.94182358,6.05436225 C4.55177546,5.11270279 4.76737596,4.02880586 5.48809091,3.30809091 C6.20880586,2.58737596 7.29270279,2.37177546 8.23436225,2.76182358 C9.17602171,3.1518717 9.79,4.07075514 9.79,5.09 C9.79,6.48175757 8.66175757,7.61 7.27,7.61 Z M7.27,3.33 C6.54977621,3.31373009 5.89154887,3.73559596 5.60551787,4.39678677 C5.31948686,5.05797758 5.46272727,5.82655824 5.96773483,6.34032315 C6.47274239,6.85408806 7.23874707,7.01051975 7.90475725,6.73589735 C8.57076742,6.46127495 9.00388635,5.81039705 9.00002594,5.09 C9.00013953,4.12957506 8.23028542,3.34637087 7.27,3.33 L7.27,3.33 Z" id="形状"></path>
                <circle id="椭圆形" cx="7.27" cy="5.09" r="1"></circle>
                <path d="M1.05,7.34 L3.47,7.34 C3.63568542,7.34 3.77,7.47431458 3.77,7.64 L3.77,10.12 C3.77253489,10.2445128 3.69787844,10.3576437 3.58240107,10.4042788 C3.46692369,10.4509139 3.33464211,10.4213541 3.25,10.33 L0.83,7.86 C0.747551626,7.77055098 0.725041579,7.64114606 0.772441507,7.52910987 C0.819841434,7.41707368 0.928389352,7.34311636 1.05,7.34 L1.05,7.34 Z" id="路径"></path>
                <path d="M0.59,11.88 C0.380131795,11.88 0.21,11.7098682 0.21,11.5 C0.074024708,10.1681259 0.837014159,8.9073572 2.08,8.41 C2.17415499,8.37918065 2.27684932,8.38852523 2.36389523,8.43583279 C2.45094113,8.48314034 2.51464407,8.56422907 2.54,8.66 C2.59866367,8.85861623 2.48748461,9.06763285 2.29,9.13 C1.38617616,9.55096699 0.862849866,10.5124269 1,11.5 C1.00033152,11.6062021 0.956204643,11.7076969 0.878312424,11.7798897 C0.800420205,11.8520825 0.695871098,11.8883849 0.59,11.88 L0.59,11.88 Z" id="路径"></path>
            </g>
        </g>
    </g>
</svg>