<?xml version="1.0" encoding="UTF-8"?>
<svg width="12px" height="10px" viewBox="0 0 12 10" version="1.1" xmlns="http://www.w3.org/2000/svg" xmlns:xlink="http://www.w3.org/1999/xlink">
    <!-- Generator: Sketch 63 (92445) - https://sketch.com -->
    <title>deliverable</title>
    <desc>Created with Sketch.</desc>
    <g id="页面-1" stroke="none" stroke-width="1" fill="none" fill-rule="evenodd">
        <g id="画板" transform="translate(-37.000000, -195.000000)" fill="#030000" fill-rule="nonzero">
            <g id="deliverable" transform="translate(37.000000, 195.000000)">
                <path d="M2.85,9.35 C2.34139166,9.34862483 1.84305393,9.20673701 1.41,8.94 L0.75,8.52 L0.75,0.9 L11.37,0.9 L11.37,8.9 L9.37,8.05 C8.19947925,7.54985675 6.86818392,7.5900882 5.73,8.16 L4.73,8.67 L4.31,8.94 C3.87295551,9.21437801 3.36599,9.35674504 2.85,9.35 L2.85,9.35 Z M1.5,8.11 L1.81,8.3 C2.45612338,8.70118659 3.27387662,8.70118659 3.92,8.3 L4.37,8 L5.43,7.47 C6.75950318,6.79333072 8.32171008,6.74565774 9.69,7.34 L10.62,7.74 L10.62,1.65 L1.5,1.65 L1.5,8.11 Z" id="形状"></path>
            </g>
        </g>
    </g>
</svg>