<?xml version="1.0" encoding="UTF-8"?>
<svg width="13px" height="14px" viewBox="0 0 13 14" version="1.1" xmlns="http://www.w3.org/2000/svg" xmlns:xlink="http://www.w3.org/1999/xlink">
    <!-- Generator: Sketch 63 (92445) - https://sketch.com -->
    <title>driver</title>
    <desc>Created with Sketch.</desc>
    <g id="页面-1" stroke="none" stroke-width="1" fill="none" fill-rule="evenodd">
        <g id="画板" transform="translate(-169.000000, -162.000000)" fill="#030000" fill-rule="nonzero">
            <g id="driver" transform="translate(169.000000, 162.000000)">
                <path d="M6.48,12.18 C3.68543917,12.18 1.42,9.91456083 1.42,7.12 C1.42,4.32543917 3.68543917,2.06 6.48,2.06 C9.27456083,2.06 11.54,4.32543917 11.54,7.12 C11.534498,9.91227864 9.27227864,12.174498 6.48,12.18 Z M6.48,2.81 C4.09965273,2.81 2.17,4.73965273 2.17,7.12 C2.17,9.50034727 4.09965273,11.43 6.48,11.43 C8.86034727,11.43 10.79,9.50034727 10.79,7.12 C10.7790515,4.74420254 8.85579746,2.82094855 6.48,2.81 Z" id="形状"></path>
                <rect id="矩形" x="6.1" y="0.92" width="1" height="12.41"></rect>
                <rect id="矩形" x="0.27" y="6.75" width="12.41" height="1"></rect>
                <rect id="矩形" transform="translate(6.477973, 7.122513) rotate(-45.000000) translate(-6.477973, -7.122513) " x="6.10297257" y="0.917512627" width="1" height="12.41"></rect>
                <rect id="矩形" transform="translate(6.477973, 7.122513) rotate(-45.000000) translate(-6.477973, -7.122513) " x="0.272972568" y="6.74751263" width="12.41" height="1"></rect>
            </g>
        </g>
    </g>
</svg>