<?xml version="1.0" encoding="UTF-8"?>
<svg width="14px" height="14px" viewBox="0 0 14 14" version="1.1" xmlns="http://www.w3.org/2000/svg" xmlns:xlink="http://www.w3.org/1999/xlink">
    <!-- Generator: Sketch 63 (92445) - https://sketch.com -->
    <title>equipment</title>
    <desc>Created with Sketch.</desc>
    <g id="页面-1" stroke="none" stroke-width="1" fill="none" fill-rule="evenodd">
        <g id="画板" transform="translate(-135.000000, -162.000000)" fill="#030000" fill-rule="nonzero">
            <g id="equipment" transform="translate(135.000000, 162.000000)">
                <path d="M8.39,13.1 L5.63,13.1 L5.63,11.63 L2.38,11.63 L2.38,8.38 L0.91,8.38 L0.91,5.62 L2.38,5.62 L2.38,2.37 L5.63,2.37 L5.63,0.9 L8.39,0.9 L8.39,2.37 L11.64,2.37 L11.64,5.62 L13.11,5.62 L13.11,8.38 L11.64,8.38 L11.64,11.63 L8.39,11.63 L8.39,13.1 Z M6.39,12.35 L7.64,12.35 L7.64,10.88 L10.89,10.88 L10.89,7.63 L12.36,7.63 L12.36,6.37 L10.89,6.37 L10.89,3.12 L7.64,3.12 L7.64,1.65 L6.38,1.65 L6.38,3.12 L3.13,3.12 L3.13,6.37 L1.66,6.37 L1.66,7.63 L3.13,7.63 L3.13,10.88 L6.38,10.88 L6.39,12.35 Z M7,9.76 C6.59431628,9.76215352 6.19371585,9.66970726 5.83,9.49 C5.24210017,9.21966814 4.77033186,8.74789983 4.5,8.16 C4.33385105,7.79593211 4.24856095,7.400186 4.25,7 C4.24457694,6.59940682 4.330053,6.20279791 4.5,5.84 C4.77627995,5.24696992 5.25493221,4.77186323 5.85,4.5 C6.58603664,4.14471991 7.44396336,4.14471991 8.18,4.5 C8.84168299,4.80621296 9.35403603,5.36351762 9.60365385,6.04855901 C9.85327168,6.7336004 9.81956697,7.48987952 9.51,8.15 L9.51,8.15 C9.23668412,8.74406161 8.76201313,9.22227492 8.17,9.5 C7.80520906,9.67556116 7.40481299,9.76453806 7,9.76 Z M7,5 C6.70585288,4.99738386 6.41503766,5.06238961 6.15,5.19 C5.44827506,5.51946893 5.0001499,6.22477897 4.99998767,7 C4.99898786,7.29612152 5.06031735,7.58914018 5.18,7.86 C5.38042597,8.30399372 5.73600628,8.65957403 6.18,8.86 C6.71339094,9.11975025 7.33660906,9.11975025 7.87,8.86 C8.31399372,8.65957403 8.66957403,8.30399372 8.87,7.86 C8.97147101,7.58518373 9.01570943,7.29252959 9,7 C8.9984189,6.70952462 8.93358257,6.42287981 8.81,6.16 C8.60957403,5.71600628 8.25399372,5.36042597 7.81,5.16 C7.55604418,5.04462678 7.27875001,4.98985263 7,5 L7,5 Z" id="形状"></path>
            </g>
        </g>
    </g>
</svg>