<?xml version="1.0" encoding="UTF-8"?>
<svg width="12px" height="14px" viewBox="0 0 12 14" version="1.1" xmlns="http://www.w3.org/2000/svg" xmlns:xlink="http://www.w3.org/1999/xlink">
    <!-- Generator: Sketch 63 (92445) - https://sketch.com -->
    <title>facility</title>
    <desc>Created with Sketch.</desc>
    <g id="页面-1" stroke="none" stroke-width="1" fill="none" fill-rule="evenodd">
        <g id="画板" transform="translate(-103.000000, -161.000000)" fill="#030000" fill-rule="nonzero">
            <g id="facility" transform="translate(103.000000, 161.000000)">
                <path d="M11.8,13.1 L0.36,13.1 L0.36,0.9 L2.68,0.9 L2.68,9.62 L2.74,9.62 L4.93,6.74 L5.7,6.74 L5.7,9.43 L8.08,6.74 L8.8,6.74 L8.8,9.46 L11.09,6.74 L11.8,6.74 L11.8,13.1 Z M1.11,12.35 L11.05,12.35 L11.05,8 L9.05,10.42 L8.05,10.42 L8,7.9 L5.85,10.37 L4.91,10.37 L4.94,8 L3.14,10.39 L2,10.39 L2,7.14 L2,1.65 L1.11,1.65 L1.11,12.35 Z" id="形状"></path>
            </g>
        </g>
    </g>
</svg>