<?xml version="1.0" encoding="UTF-8"?>
<svg width="12px" height="12px" viewBox="0 0 12 12" version="1.1" xmlns="http://www.w3.org/2000/svg" xmlns:xlink="http://www.w3.org/1999/xlink">
    <!-- Generator: Sketch 63 (92445) - https://sketch.com -->
    <title>goal</title>
    <desc>Created with Sketch.</desc>
    <g id="页面-1" stroke="none" stroke-width="1" fill="none" fill-rule="evenodd">
        <g id="画板" transform="translate(-41.000000, -162.000000)" fill="#030000" fill-rule="nonzero">
            <g id="goal" transform="translate(41.000000, 162.000000)">
                <path d="M6,11.64 C2.95138818,11.64 0.48,9.16861182 0.48,6.12 C0.48,3.07138818 2.95138818,0.6 6,0.6 C9.04861182,0.6 11.52,3.07138818 11.52,6.12 C11.52,7.58399502 10.9384302,8.98802862 9.90322943,10.0232294 C8.86802862,11.0584302 7.46399502,11.64 6,11.64 Z M6,1.35 C3.36560174,1.35 1.23,3.48560174 1.23,6.12 C1.23,8.75439826 3.36560174,10.89 6,10.89 C8.63439826,10.89 10.77,8.75439826 10.77,6.12 C10.7644992,3.48788361 8.63211639,1.35550078 6,1.35 Z" id="形状"></path>
                <path d="M6,9.16 C4.34314575,9.16 3,7.81685425 3,6.16 C3,4.50314575 4.34314575,3.16 6,3.16 C7.65685425,3.16 9,4.50314575 9,6.16 C9,6.95564947 8.68392948,7.71871121 8.12132034,8.28132034 C7.55871121,8.84392948 6.79564947,9.16 6,9.16 Z M6,3.83997804 C5.07287335,3.83997804 4.23723057,4.39903762 3.883376,5.2559803 C3.52952144,6.11292299 3.72728395,7.09867246 4.38429444,7.75281391 C5.04130493,8.40695536 6.02791045,8.600402 6.88329634,8.24280055 C7.73868223,7.88519909 8.29404859,7.04711781 8.29002199,6.12 C8.29002199,5.5135698 8.04842001,4.93212225 7.61867181,4.50425068 C7.18892362,4.07637911 6.60642437,3.83734022 6,3.83997804 Z" id="形状"></path>
                <circle id="椭圆形" cx="6" cy="6.12" r="1"></circle>
            </g>
        </g>
    </g>
</svg>