<?xml version="1.0" encoding="UTF-8"?>
<svg width="9px" height="14px" viewBox="0 0 9 14" version="1.1" xmlns="http://www.w3.org/2000/svg" xmlns:xlink="http://www.w3.org/1999/xlink">
    <!-- Generator: Sketch 63 (92445) - https://sketch.com -->
    <title>location</title>
    <desc>Created with Sketch.</desc>
    <g id="页面-1" stroke="none" stroke-width="1" fill="none" fill-rule="evenodd">
        <g id="画板" transform="translate(-133.000000, -133.000000)" fill="#040000" fill-rule="nonzero">
            <g id="location" transform="translate(133.000000, 133.000000)">
                <path d="M4.83,13.1100079 C4.61000568,13.110584 4.40861771,12.986653 4.31,12.79 L1.19,6.57 C0.709786498,5.62276061 0.641059694,4.51951454 1,3.52 C1.49972259,2.12157588 2.74502156,1.12425748 4.2188414,0.942137303 C5.69266124,0.760017128 7.14327239,1.42420145 7.9683725,2.658917 C8.79347262,3.89363254 8.85213396,5.48798896 8.12,6.78 L5.35,12.78 C5.25612541,12.9822337 5.05295636,13.1111679 4.83,13.1100079 L4.83,13.1100079 Z M4.72,1.64 C4.56682791,1.63005528 4.41317209,1.63005528 4.26,1.64 C3.08646536,1.81324253 2.10505601,2.62146199 1.71,3.74 C1.41297154,4.54477564 1.46739225,5.43727535 1.86,6.2 L4.86,12.1 L7.49,6.41 C7.78226594,5.92365703 7.93774126,5.36740088 7.94,4.8 C7.93963363,3.88027478 7.5423227,3.00546172 6.85,2.4 C6.25953294,1.89005707 5.49990565,1.61901635 4.72,1.64 Z" id="形状"></path>
            </g>
        </g>
    </g>
</svg>