<?xml version="1.0" encoding="UTF-8"?>
<svg width="12px" height="12px" viewBox="0 0 12 12" version="1.1" xmlns="http://www.w3.org/2000/svg" xmlns:xlink="http://www.w3.org/1999/xlink">
    <!-- Generator: Sketch 63 (92445) - https://sketch.com -->
    <title>meaning</title>
    <desc>Created with Sketch.</desc>
    <g id="页面-1" stroke="none" stroke-width="1" fill="none" fill-rule="evenodd">
        <g id="画板" transform="translate(-76.000000, -133.000000)" fill="#030000" fill-rule="nonzero">
            <g id="meaning" transform="translate(76.000000, 133.000000)">
                <path d="M7.79,11.38 C6.91356125,11.3797136 6.06732905,11.0597098 5.41,10.48 C4.97950651,10.7222081 4.49395271,10.849623 4,10.85 C2.34314575,10.85 1,9.50685425 1,7.85 C0.996183606,7.24828659 1.18158683,6.66059336 1.53,6.17 C0.679964781,5.42251015 0.379387443,4.22798892 0.774407036,3.16720597 C1.16942663,2.10642302 2.17809376,1.3994447 3.31,1.39 C3.89033368,1.38489962 4.4561772,1.57117109 4.92,1.92 C5.68913143,0.728578898 7.15243876,0.187942305 8.51144457,0.593097359 C9.87045038,0.998252413 10.7988308,2.25191346 10.79,3.67 C10.7879838,4.21193574 10.6504796,4.74476451 10.39,5.22 C11.0380793,5.89817384 11.3967326,6.80198018 11.3900931,7.74 C11.3847277,9.73257818 9.78239829,11.3527113 7.79,11.38 L7.79,11.38 Z M5.5,9.52 L5.72,9.75 C6.46847141,10.4645312 7.54128536,10.7254805 8.53432322,10.4345508 C9.52736108,10.1436211 10.2897568,9.34501165 10.5343232,8.33955081 C10.7788897,7.33408996 10.4684714,6.27453118 9.72,5.56 L9.46,5.34 L9.65,5.06 C9.90613191,4.64338821 10.0282941,4.15822984 10,3.67 C10.0046083,2.51566876 9.19967373,1.5160494 8.07092151,1.27434657 C6.94216928,1.03264374 5.79848206,1.61499934 5.33,2.67 L5.1,3.18 L4.71,2.77 C4.33438231,2.37596946 3.81437524,2.15207752 3.27,2.15 C2.3987221,2.18598432 1.65118971,2.78233222 1.42251995,3.62383694 C1.19385019,4.46534166 1.53675987,5.35800534 2.27,5.83 L2.66,6.07 L2.35,6.4 C1.60725808,7.23248039 1.60146256,8.48800158 2.33648748,9.32730339 C3.0715124,10.1666052 4.31682968,10.3264549 5.24,9.7 L5.5,9.52 Z" id="形状"></path>
            </g>
        </g>
    </g>
</svg>