<?xml version="1.0" encoding="UTF-8"?>
<svg width="13px" height="12px" viewBox="0 0 13 12" version="1.1" xmlns="http://www.w3.org/2000/svg" xmlns:xlink="http://www.w3.org/1999/xlink">
    <!-- Generator: Sketch 63 (92445) - https://sketch.com -->
    <title>outcome</title>
    <desc>Created with Sketch.</desc>
    <g id="页面-1" stroke="none" stroke-width="1" fill="none" fill-rule="evenodd">
        <g id="画板" transform="translate(-185.000000, -101.000000)">
            <g id="outcome" transform="translate(185.000000, 101.000000)">
                <path d="M5.69,0.895 C2.63862676,0.895 0.165,3.36862676 0.165,6.42 C0.165,9.47137324 2.63862676,11.945 5.69,11.945 C8.74137324,11.945 11.215,9.47137324 11.215,6.42 C11.215,3.36862676 8.74137324,0.895 5.69,0.895 Z M5.69,1.645 C8.32715968,1.645 10.465,3.78284032 10.465,6.42 C10.465,9.05715968 8.32715968,11.195 5.69,11.195 C3.05284032,11.195 0.915,9.05715968 0.915,6.42 C0.915,3.78284032 3.05284032,1.645 5.69,1.645 Z" id="椭圆形" fill="#030000" fill-rule="nonzero"></path>
                <circle id="椭圆形" stroke="#030000" stroke-width="0.75" cx="5.69" cy="6.42" r="2.66"></circle>
                <circle id="椭圆形" fill="#030000" fill-rule="nonzero" cx="5.69" cy="6.42" r="1"></circle>
                <line x1="10.45" y1="1.72" x2="5.69" y2="6.42" id="路径" stroke="#030000" stroke-width="0.75"></line>
                <polyline id="路径" stroke="#030000" stroke-width="0.75" points="10.3 0.67 10.3 1.87 12.02 1.87"></polyline>
            </g>
        </g>
    </g>
</svg>