<?xml version="1.0" encoding="UTF-8"?>
<svg width="11px" height="10px" viewBox="0 0 11 10" version="1.1" xmlns="http://www.w3.org/2000/svg" xmlns:xlink="http://www.w3.org/1999/xlink">
    <!-- Generator: Sketch 63 (92445) - https://sketch.com -->
    <title>system-software</title>
    <desc>Created with Sketch.</desc>
    <g id="页面-1" stroke="none" stroke-width="1" fill="none" fill-rule="evenodd">
        <g id="画板" transform="translate(-232.000000, -48.000000)" fill="#030000" fill-rule="nonzero">
            <g id="system-software" transform="translate(232.000000, 48.000000)">
                <path d="M6.38,0.4 C7.44958612,0.399916435 8.4746531,0.828200445 9.22625261,1.58919495 C9.97785212,2.35018946 10.3933698,3.38049745 10.38,4.45 C10.3576256,6.23981207 9.16279913,7.74123537 7.53383583,8.23115978 C7.83199043,7.91844493 8.07837153,7.55877693 8.26304894,7.16746454 C8.42692196,7.05412227 8.58255351,6.92476974 8.72699059,6.77989364 C9.66999229,5.83402567 9.9498526,4.41299977 9.435923,3.18020019 C8.92199339,1.9474006 7.71562797,1.14595262 6.38,1.14998474 C5.8841147,1.15149159 5.41404814,1.26231462 4.99258869,1.45959597 C4.88004212,1.44767391 4.76560581,1.44141864 4.65,1.44 L4.65,1.39 C4.2947002,1.38561325 3.94643909,1.42774346 3.61229225,1.51177273 C4.33143143,0.82315833 5.30647193,0.400083873 6.38,0.4 Z" id="形状"></path>
                <path d="M4.65,2.14 C6.47253967,2.14 7.95,3.61746033 7.95,5.44 C7.95,7.26253967 6.47253967,8.74 4.65,8.74 C2.82746033,8.74 1.35,7.26253967 1.35,5.44 C1.35,3.61746033 2.82746033,2.14 4.65,2.14 M4.65,1.39 C3.00752993,1.36972105 1.51547676,2.34351056 0.872829281,3.85517301 C0.230181803,5.36683547 0.56423191,7.11694952 1.71848566,8.28563145 C2.87273941,9.45431337 4.61856891,9.81007741 6.13809762,9.18625721 C7.65762633,8.562437 8.64987482,7.08259525 8.65,5.44 C8.62302923,3.24212959 6.84787041,1.46697077 4.65,1.44 L4.65,1.39 Z" id="形状"></path>
            </g>
        </g>
    </g>
</svg>