<?xml version="1.0" encoding="UTF-8"?>
<svg width="15px" height="9px" viewBox="0 0 15 9" version="1.1" xmlns="http://www.w3.org/2000/svg" xmlns:xlink="http://www.w3.org/1999/xlink">
    <!-- Generator: Sketch 63 (92445) - https://sketch.com -->
    <title>technology-service</title>
    <desc>Created with Sketch.</desc>
    <g id="页面-1" stroke="none" stroke-width="1" fill="none" fill-rule="evenodd">
        <g id="画板" transform="translate(-45.000000, -47.000000)" fill="#030000" fill-rule="nonzero">
            <g id="technology-service" transform="translate(46.000000, 48.000000)">
                <path d="M9.5,-0.35 L3.5,-0.35 C1.37370371,-0.35 -0.35,1.37370371 -0.35,3.5 C-0.35,5.62629629 1.37370371,7.35 3.5,7.35 L9.5,7.35 C11.6262963,7.35 13.35,5.62629629 13.35,3.5 C13.35,1.37370371 11.6262963,-0.35 9.5,-0.35 Z M3.5,0.35 L9.5,0.35 C11.239697,0.35 12.65,1.76030304 12.65,3.5 C12.65,5.23969696 11.239697,6.65 9.5,6.65 L3.5,6.65 C1.76030304,6.65 0.35,5.23969696 0.35,3.5 C0.35,1.76030304 1.76030304,0.35 3.5,0.35 Z" id="矩形备份-4"></path>
            </g>
        </g>
    </g>
</svg>