<?xml version="1.0" encoding="UTF-8"?>
<svg width="16px" height="16px" viewBox="0 0 16 16" version="1.1" xmlns="http://www.w3.org/2000/svg" xmlns:xlink="http://www.w3.org/1999/xlink">
    <!-- Generator: Sketch 63 (92445) - https://sketch.com -->
    <title>ad hoc</title>
    <desc>Created with Sketch.</desc>
    <g id="ad-hoc" stroke="none" stroke-width="1" fill="none" fill-rule="evenodd">
        <g>
            <rect id="矩形" fill="#D8D8D8" opacity="0" x="0" y="0" width="16" height="16"></rect>
            <path d="M2.51923305,12.698276 L1,12.698276 C1.23568527,8.13769036 2.03682485,5.64808527 3.40341874,5.22946077 C5.20470364,4.63345415 5.88091051,5.17827107 8.48243558,6.88932361 C11.0839606,8.60037614 12.6814663,7.84331343 13.2028975,6.88932361 C13.5505183,6.25333039 13.7852797,5.29022252 13.9071815,4 L15.2829672,4 C15.3527866,7.21004995 14.65943,9.51899664 13.2028975,10.9268401 C11.4893479,12.460715 8.86005891,10.2970138 7.08215331,9.21760358 C6.50130001,8.86495325 5.23648663,8.51820022 4.13812143,9.06267246 C3.24440152,9.47429906 2.70477206,10.6861669 2.51923305,12.698276 Z" id="路径-3" fill="#333333"></path>
        </g>
    </g>
</svg>