<?xml version="1.0" encoding="UTF-8"?>
<svg width="15px" height="15px" viewBox="0 0 15 15" version="1.1" xmlns="http://www.w3.org/2000/svg" xmlns:xlink="http://www.w3.org/1999/xlink">
    <!-- Generator: Sketch 63 (92445) - https://sketch.com -->
    <title>取消</title>
    <desc>Created with Sketch.</desc>
    <g id="取消" stroke="none" stroke-width="1" fill="none" fill-rule="evenodd">
        <g id="cancel">
            <g id="cancel-2">
                <path d="M14.1421955,2.82846272 L11.3137085,0 L7.0711099,4.2431099 L2.82848701,0 L0,2.82848701 L4.2431099,7.0711099 L0,11.3137085 L2.82846272,14.1421955 L7.0711099,9.8991099 L11.3137328,14.1421955 L14.1421955,11.3137328 L9.8991099,7.0711099 L14.1421955,2.82846272 Z M11.3137506,1.41425565 L12.7279642,2.82846921 L8.48525565,7.07125565 L12.7279642,11.3137506 L11.3137506,12.7279642 L7.07125565,8.48525565 L2.82846921,12.7279642 L1.41425565,11.3137506 L5.65725565,7.07125565 L1.41425565,2.82846921 L2.82846921,1.41425565 L7.07125565,5.65725565 L11.3137506,1.41425565 Z" fill="#333333" fill-rule="nonzero"></path>
                <polygon id="路径" fill="#FFFFFF" points="11.3137506 1.41425565 12.7279642 2.82846921 8.48525565 7.07125565 12.7279642 11.3137506 11.3137506 12.7279642 7.07125565 8.48525565 2.82846921 12.7279642 1.41425565 11.3137506 5.65725565 7.07125565 1.41425565 2.82846921 2.82846921 1.41425565 7.07125565 5.65725565"></polygon>
            </g>
        </g>
    </g>
</svg>