<?xml version="1.0" encoding="UTF-8"?>
<svg width="12px" height="13px" viewBox="0 0 12 13" version="1.1" xmlns="http://www.w3.org/2000/svg" xmlns:xlink="http://www.w3.org/1999/xlink">
    <!-- Generator: Sketch 63 (92445) - https://sketch.com -->
    <title>conditional</title>
    <desc>Created with Sketch.</desc>
    <g id="conditional" stroke="none" stroke-width="1" fill="none" fill-rule="evenodd">
        <g id="conditional-2">
            <g>
                <g id="conditional">
                    <rect id="矩形" fill="#FFFFFF" x="1" y="0.5" width="10" height="12"></rect>
                    <path d="M12,0.5 L12,13 L0,13 L0,0.5 L12,0.5 Z M11,1.5 L1,1.5 L1,12 L11,12 L11,1.5 Z M10,9 L10,10 L2,10 L2,9 L10,9 Z M10,7 L10,8 L2,8 L2,7 L10,7 Z M10,5 L10,6 L2,6 L2,5 L10,5 Z M10,3 L10,4 L2,4 L2,3 L10,3 Z" id="形状结合" fill="#333333" fill-rule="nonzero"></path>
                </g>
            </g>
        </g>
    </g>
</svg>