<?xml version="1.0" encoding="UTF-8"?>
<svg width="12px" height="13px" viewBox="0 0 12 13" version="1.1" xmlns="http://www.w3.org/2000/svg" xmlns:xlink="http://www.w3.org/1999/xlink">
    <!-- Generator: Sketch 63 (92445) - https://sketch.com -->
    <title>escalation</title>
    <desc>Created with Sketch.</desc>
    <g id="escalation" stroke="none" stroke-width="1" fill="none" fill-rule="evenodd">
        <g fill-rule="nonzero" id="escalation-2">
            <g>
                <g id="escalation">
                    <path d="M11.424459,12.6103158 L11.376904,12.6516299 C11.2160923,12.773006 10.9939693,12.7730332 10.8328347,12.6513358 L5.77541272,8.8372224 L0.724109595,12.6430745 C0.562981383,12.7647898 0.341163588,12.7644665 0.180051672,12.642769 C0.0186231601,12.5213882 -0.0420758472,12.3080287 0.0300507349,12.1198343 L5.345459,0.289257152 C5.41320976,0.115455708 5.57995705,0 5.76704198,0 C5.95393989,0 6.12136696,0.115282919 6.18894099,0.289839112 L11.5261236,12.1288134 C11.5907355,12.2973095 11.5492941,12.4854807 11.424459,12.6103158 Z" id="形状" fill="#FFFFFF"></path>
                    <path d="M11.424459,12.6103158 L11.376904,12.6516299 C11.2160923,12.773006 10.9939693,12.7730332 10.8328347,12.6513358 L5.77541272,8.8372224 L0.724109595,12.6430745 C0.562981383,12.7647898 0.341163588,12.7644665 0.180051672,12.642769 C0.0186231601,12.5213882 -0.0420758472,12.3080287 0.0300507349,12.1198343 L5.345459,0.289257152 C5.41320976,0.115455708 5.57995705,0 5.76704198,0 C5.95393989,0 6.12136696,0.115282919 6.18894099,0.289839112 L11.5261236,12.1288134 C11.5907355,12.2973095 11.5492941,12.4854807 11.424459,12.6103158 Z M1.43916392,10.9722525 L5.5027809,7.91069011 C5.66390911,7.78899738 5.8857269,7.78929811 6.04683882,7.91099554 L10.1151806,10.978802 L5.76855593,1.70852512 L1.43916392,10.9722525 Z" id="形状" fill="#333333"></path>
                </g>
            </g>
        </g>
    </g>
</svg>