<?xml version="1.0" encoding="UTF-8"?>
<svg width="18px" height="18px" viewBox="0 0 18 18" version="1.1" xmlns="http://www.w3.org/2000/svg" xmlns:xlink="http://www.w3.org/1999/xlink">
    <!-- Generator: Sketch 63 (92445) - https://sketch.com -->
    <title>event based-2</title>
    <desc>Created with Sketch.</desc>
    <g id="event-based-2" stroke="none" stroke-width="1" fill="none" fill-rule="evenodd">
        <g id="event-based">
            <g>
                <rect id="矩形备份-14" fill="#D8D8D8" opacity="0" x="1" y="1" width="16" height="16"></rect>
                <polygon id="多边形备份" fill="#FFFFFF" fill-rule="nonzero" points="13.6420113 7.82294902 9.25 4.63196601 4.85798868 7.82294902 6.53558773 12.986068 11.9644123 12.986068"></polygon>
                <path d="M13.6420113,7.82294902 L9.25,4.63196601 L4.85798868,7.82294902 L6.53558773,12.986068 L11.9644123,12.986068 L13.6420113,7.82294902 Z M9.25,5.867 L12.466,8.204 L11.237,11.986 L7.262,11.986 L6.033,8.204 L9.25,5.867 Z" id="多边形备份" fill="#333333" fill-rule="nonzero"></path>
                <path d="M9,0.5 C13.6944204,0.5 17.5,4.30557963 17.5,9 C17.5,13.6944204 13.6944204,17.5 9,17.5 C4.30557963,17.5 0.5,13.6944204 0.5,9 C0.5,4.30557963 4.30557963,0.5 9,0.5 Z M9,1.5 C4.85786438,1.5 1.5,4.85786438 1.5,9 C1.5,13.1421356 4.85786438,16.5 9,16.5 C13.1421356,16.5 16.5,13.1421356 16.5,9 C16.5,4.85786438 13.1421356,1.5 9,1.5 Z M9,2.5 C12.5898509,2.5 15.5,5.41014913 15.5,9 C15.5,12.5898509 12.5898509,15.5 9,15.5 C5.41014913,15.5 2.5,12.5898509 2.5,9 C2.5,5.41014913 5.41014913,2.5 9,2.5 Z M9,3.5 C5.96243388,3.5 3.5,5.96243388 3.5,9 C3.5,12.0375661 5.96243388,14.5 9,14.5 C12.0375661,14.5 14.5,12.0375661 14.5,9 C14.5,5.96243388 12.0375661,3.5 9,3.5 Z" id="形状结合" fill="#333333" fill-rule="nonzero"></path>
            </g>
        </g>
    </g>
</svg>