<?xml version="1.0" encoding="UTF-8"?>
<svg width="16px" height="16px" viewBox="0 0 16 16" version="1.1" xmlns="http://www.w3.org/2000/svg" xmlns:xlink="http://www.w3.org/1999/xlink">
    <!-- Generator: Sketch 63 (92445) - https://sketch.com -->
    <title>input</title>
    <desc>Created with Sketch.</desc>
    <g id="input" stroke="none" stroke-width="1" fill="none" fill-rule="evenodd">
        <g fill-rule="nonzero">
            <g>
                <rect id="矩形" fill="#000000" opacity="0" x="0" y="0" width="16" height="16"></rect>
                <path d="M9.76157012,9.30014852 L2.05005788,9.30014852 L2.05005788,6.69974774 L9.76157012,6.69974774 L9.76157012,4.72532426 L13.628945,7.99993543 L9.76157012,11.2747244 L9.76157012,9.30014852 Z M8.71151225,5.61972657 L1.48993811,5.61972657 C1.21941029,5.61972657 1,5.84540416 1,6.12374153 L1,9.87633255 C1,10.1546699 1.21941029,10.3803475 1.48993811,10.3803475 L8.71151225,10.3803475 L8.71151225,12.4950193 C8.71151225,12.9208955 9.19332588,13.1549306 9.51292159,12.8840616 C11.2824526,11.3858104 13.0520083,9.88758461 14.8213664,8.38915559 C15.0595445,8.18748356 15.0595445,7.8124127 14.8213664,7.61071526 C13.0520083,6.11248945 11.2824526,4.61426366 9.51292159,3.11583464 C9.19335057,2.84511807 8.71151225,3.07917854 8.71151225,3.50502939 L8.71151225,5.61972657 Z" id="形状" fill="#333333"></path>
            </g>
        </g>
    </g>
</svg>