<?xml version="1.0" encoding="UTF-8"?>
<svg width="14px" height="10px" viewBox="0 0 14 10" version="1.1" xmlns="http://www.w3.org/2000/svg" xmlns:xlink="http://www.w3.org/1999/xlink">
    <!-- Generator: Sketch 63 (92445) - https://sketch.com -->
    <title>link</title>
    <desc>Created with Sketch.</desc>
    <g id="link" stroke="none" stroke-width="1" fill="none" fill-rule="evenodd">
        <g fill-rule="nonzero" id="link-2">
            <g>
                <g id="link">
                    <polygon id="形状" fill="#FFFFFF" points="8.76157012 6.30014852 1.05005788 6.30014852 1.05005788 3.69974774 8.76157012 3.69974774 8.76157012 1.72532426 12.628945 4.99993543 8.76157012 8.27472441"></polygon>
                    <path d="M8.76157012,6.30014852 L1.05005788,6.30014852 L1.05005788,3.69974774 L8.76157012,3.69974774 L8.76157012,1.72532426 L12.628945,4.99993543 L8.76157012,8.27472441 L8.76157012,6.30014852 Z M7.71151225,2.61972657 L0.489938108,2.61972657 C0.219410288,2.61972657 0,2.84540416 0,3.12374153 L0,6.87633255 C0,7.15466993 0.219410288,7.3803475 0.489938108,7.3803475 L7.71151225,7.3803475 L7.71151225,9.49501928 C7.71151225,9.92089553 8.19332588,10.1549306 8.51292159,9.88406162 C10.2824526,8.38581041 12.0520083,6.88758461 13.8213664,5.38915559 C14.0595445,5.18748356 14.0595445,4.8124127 13.8213664,4.61071526 C12.0520083,3.11248945 10.2824526,1.61426366 8.51292159,0.115834643 C8.19335057,-0.154881926 7.71151225,0.0791785432 7.71151225,0.505029393 L7.71151225,2.61972657 Z" id="形状" fill="#333333"></path>
                </g>
            </g>
        </g>
    </g>
</svg>