<?xml version="1.0" encoding="UTF-8"?>
<svg width="16px" height="16px" viewBox="0 0 16 16" version="1.1" xmlns="http://www.w3.org/2000/svg" xmlns:xlink="http://www.w3.org/1999/xlink">
    <!-- Generator: Sketch 63 (92445) - https://sketch.com -->
    <title>loop</title>
    <desc>Created with Sketch.</desc>
    <g id="loop" stroke="none" stroke-width="1" fill="none" fill-rule="evenodd">
        <g fill-rule="nonzero">
            <g transform="translate(8.000000, 8.000000) scale(-1, 1) translate(-8.000000, -8.000000) ">
                <rect id="矩形" fill="#000000" opacity="0" x="0" y="0" width="16" height="16"></rect>
                <path d="M14.7888052,7.30028241 L12.4927139,9.63241322 C12.3677427,9.75931917 12.1971064,9.8308067 12.0189871,9.8308067 C11.8408679,9.8308067 11.6702316,9.75931917 11.5452603,9.63241322 L9.24915308,7.30028241 C8.9915997,7.0386518 8.99492544,6.61783311 9.25652408,6.36019978 C9.51807475,6.10264641 9.9387975,6.1058922 10.1966067,6.36757078 L11.4799606,7.67110298 C11.3134975,5.25835483 9.33320809,3.34677088 6.92122742,3.34677088 C4.40042453,3.34677088 2.34963895,5.43415563 2.34963895,7.99999998 C2.34963895,10.5658443 4.4004405,12.6532131 6.92124339,12.6532131 C7.84906233,12.6532131 8.74191298,12.3722836 9.50314086,11.840692 C9.8042647,11.6306105 10.2186877,11.7042245 10.4287693,12.0051885 C10.6389468,12.3062324 10.5652528,12.7206554 10.2642888,12.9308169 C9.27868503,13.6189264 8.1227008,13.9827117 6.92124338,13.9827117 C3.66738548,13.9827117 1.02015631,11.2988993 1.02015631,8 C1.02015631,4.70110066 3.6673695,2.01728828 6.92124338,2.01728828 C9.98554978,2.01728828 12.5109575,4.39791422 12.7947491,7.43064203 L13.8413356,6.36758678 C14.0991448,6.10582825 14.5200434,6.10274234 14.7814182,6.36021578 C15.0430488,6.61783311 15.0463746,7.0386518 14.7888052,7.30028241 Z" id="路径" fill="#333333" transform="translate(7.999994, 8.000000) rotate(90.000000) translate(-7.999994, -8.000000) "></path>
            </g>
        </g>
    </g>
</svg>