<?xml version="1.0" encoding="UTF-8"?>
<svg width="16px" height="16px" viewBox="0 0 16 16" version="1.1" xmlns="http://www.w3.org/2000/svg" xmlns:xlink="http://www.w3.org/1999/xlink">
    <!-- Generator: Sketch 63 (92445) - https://sketch.com -->
    <title>manual-2</title>
    <desc>Created with Sketch.</desc>
    <g id="manual-2" stroke="none" stroke-width="1" fill="none" fill-rule="evenodd">
        <g fill-rule="nonzero" id="manual">
            <g transform="translate(8.000000, 8.000000) scale(1, -1) rotate(90.000000) translate(-8.000000, -8.000000) ">
                <rect id="矩形" fill="#000000" opacity="0" x="0" y="0" width="16" height="16"></rect>
                <path d="M8.11554467,1.37389581 C8.14732182,1.38358331 8.17718997,1.40310426 8.20339356,1.43304248 L8.233,1.476 L8.23333333,8.03262377 L8.62028378,8.22609902 C8.68157371,8.25674399 8.72977643,8.2776408 8.78589661,8.29843202 L8.87864056,8.33074498 C8.92470737,8.34610058 8.93444098,8.34984428 8.95361721,8.35943239 L9.96666667,8.865957 L9.966,3.552 L9.98519662,3.5296849 C10.010062,3.51002314 10.0544873,3.5 10.1333333,3.5 L10.1822113,3.50722914 C10.2139885,3.51691664 10.2438566,3.53643759 10.2700602,3.56637582 L10.299,3.609 L10.3,12.1272221 L12.800245,7.96014703 C12.7780062,7.99803896 12.8058032,7.99441327 12.8293801,8.01327484 L12.9505716,8.11573509 C12.9738573,8.13261142 12.9851417,8.13087513 12.999755,8.10651964 L12.6553274,8.76940995 C11.4751934,11.0126024 10.5611091,12.4489414 9.90502525,13.1050253 L9.8355165,13.1860454 C9.20421525,14.0469108 8.19440383,14.5666667 7.06666667,14.5666667 L6.87110024,14.5610988 C5.44624332,14.4797677 4.23445086,13.5147198 3.79880679,12.1466655 L3.769,12.045 L3.76723729,12.0216547 L3.70640009,11.7993619 C3.70239375,11.7853397 3.70088471,11.7797687 3.70032384,11.7846318 L3.7,11.6864056 L3.6640783,11.5786405 C3.64700104,11.5274088 3.63580175,11.4141714 3.63383095,11.219063 L3.63333217,10.9320583 L3.60383853,10.1438257 C3.57473932,9.02603939 3.57680215,7.44980532 3.6099806,5.40765983 L3.62380907,4.24841263 C3.63279306,4.19450872 3.66858999,4.16666667 3.79999998,4.16666667 L3.85190025,4.16933868 C3.89767141,4.17519288 3.92655647,4.19212422 3.95206619,4.2339078 L3.966,4.263 L3.96666667,9.13262385 L4.97971622,8.62609902 C5.03871816,8.59659805 5.08314794,8.57152594 5.13515685,8.53879255 L5.29092312,8.43797893 L5.7,8.23262377 L5.699,2.152 L5.71852995,2.1296849 C5.74339537,2.11002314 5.78782067,2.1 5.86666667,2.1 L5.91554467,2.10722914 C5.94732181,2.11691663 5.97718997,2.13643759 6.00339356,2.16637581 L6.033,2.21 L6.03333333,8.03333333 L7.9,8.03333333 L7.899,1.419 L7.91852995,1.39635157 C7.94339537,1.37668981 7.98782067,1.36666667 8.06666667,1.36666667 L8.11554467,1.37389581 Z M2.3273128,12.0543444 L2.35820192,12.1736446 C2.36076473,12.1766519 2.36666667,12.1804353 2.36666667,12.1333333 L2.38906884,12.3090068 C2.94407371,14.4497399 4.84589235,15.9666667 7.06666667,15.9666667 L7.31437335,15.9605967 C8.71037535,15.8920117 9.97059028,15.2457592 10.8190801,14.2021997 L10.931,14.056 L10.8949747,14.0949747 C11.6747883,13.3151612 12.6460252,11.7933985 13.8671342,9.47135581 L14.2228722,8.78608832 C14.6003454,8.15997975 14.3138756,7.40799641 13.7039532,6.9200585 L13.5815446,6.83185856 C12.9970784,6.45433285 12.238123,6.55205506 11.7529936,7.04992882 L11.699,7.109 L11.7,3.3530723 L11.6640783,3.24530722 C11.4368754,2.56369867 10.8406914,2.1 10.1333333,2.1 L9.9866442,2.10576556 C9.89016719,2.11341401 9.79643879,2.12859403 9.7061617,2.15083815 L9.633,2.171 L9.63333333,1.21973897 L9.59741164,1.11197389 C9.37020879,0.430365348 8.77402478,-0.0333333281 8.06666667,-0.0333333281 L7.91997754,-0.0275677727 C7.34111549,0.0183229263 6.8612033,0.335350416 6.63202436,0.822537019 L6.606,0.886 L6.52741834,0.845462939 C6.32588607,0.751522076 6.10245271,0.7 5.86666667,0.7 C5.07426715,0.7 4.43529205,1.19698063 4.30952425,1.95158737 L4.3,2.06666667 L4.299,2.839 L4.25666171,2.82583349 C4.11515821,2.78698678 3.96267094,2.76666668 3.80000002,2.76666667 C3.00760049,2.76666665 2.36862538,3.26364728 2.24285758,4.01825403 L2.23347906,4.11905059 L2.20460714,5.74089538 C2.16853237,8.16487955 2.17827585,9.90564967 2.23430085,10.9701245 L2.23386782,11.2274084 L2.23846532,11.4180733 C2.24590089,11.5971067 2.26268708,11.7439928 2.29635188,11.8834555 L2.305,11.916 L2.31229537,11.9718091 C2.31634171,11.9992987 2.32136055,12.0266123 2.3273128,12.0543444 Z" id="路径" fill="#333333"></path>
                <path d="M7.2,7.33333333 L7.2,1.33333333 C7.26666667,0.933333328 7.6,0.666666672 8.06666667,0.666666672 C8.46666667,0.666666672 8.8,0.933333344 8.93333333,1.33333333 L8.93333333,7.6 C9.06666666,7.66666667 9.13333333,7.66666667 9.26666667,7.73333333 L9.26666667,3.46666667 C9.33333334,3.06666667 9.66666667,2.8 10.1333333,2.8 C10.5333333,2.8 10.8666667,3.06666667 11,3.46666667 L11,9.6 L12.2,7.6 C12.4666667,7.26666667 12.9333333,7.2 13.2666667,7.46666667 C13.6,7.73333334 13.8,8.13333334 13.6,8.46666667 C12.2666667,11.0666667 11.2,12.8 10.4,13.6 C9.66666667,14.6 8.46666667,15.2666667 7.06666667,15.2666667 C5.13333334,15.2666667 3.53333334,13.9333333 3.06666667,12.1333333 C3.06666667,12.0666667 3,11.9333333 3,11.8 C2.93333333,11.6 2.93333333,11.3333333 2.93333333,11.0666667 L2.93333333,10.9333333 C2.86666666,9.66666667 2.86666666,7.4 2.93333333,4.13333333 C3,3.73333333 3.33333333,3.46666666 3.8,3.46666667 C4.26666667,3.46666669 4.53333333,3.73333334 4.66666667,4.13333333 L4.66666667,8 C4.8,7.93333333 4.86666667,7.86666667 5,7.8 L5,2.06666667 C5.06666667,1.66666667 5.4,1.4 5.86666667,1.4 C6.26666667,1.4 6.6,1.66666667 6.73333333,2.06666667 L6.73333333,7.33333333 L7.2,7.33333333 Z" id="路径" fill="#FFFFFF"></path>
            </g>
        </g>
    </g>
</svg>