<?xml version="1.0" encoding="UTF-8"?>
<svg width="16px" height="16px" viewBox="0 0 16 16" version="1.1" xmlns="http://www.w3.org/2000/svg" xmlns:xlink="http://www.w3.org/1999/xlink">
    <!-- Generator: Sketch 63 (92445) - https://sketch.com -->
    <title>script-2</title>
    <desc>Created with Sketch.</desc>
    <g id="script-2" stroke="none" stroke-width="1" fill="none" fill-rule="evenodd">
        <g id="script">
            <g>
                <rect id="矩形" fill="#D8D8D8" opacity="0" x="0" y="0" width="16" height="16"></rect>
                <g id="脚本执行" transform="translate(1.000000, 1.000000)" fill-rule="nonzero">
                    <path d="M9.64521621,14 L0.133133943,14 L1.37693857,13.4486375 C3.17642443,12.6511054 4.14526762,11.8276607 4.33457352,10.9293573 C4.58506196,9.74169666 3.40387943,8.44318766 2.26228561,7.18642673 C1.02567892,5.8281748 -0.256994596,4.42313625 0.0539565605,2.94611825 C0.284290754,1.8570694 1.3596635,0.901182516 3.34197712,0.0244730117 L3.39740129,0 L12.9116429,0 L11.6656789,0.551362465 C9.86475347,1.34745501 8.89734988,2.17017995 8.70804397,3.06488432 C8.45755553,4.2511054 9.63801826,5.5481748 10.7788923,6.80277635 C12.0183781,8.16534705 13.2981725,9.57398457 12.9886609,11.049563 C12.7583267,12.1393316 11.682954,13.0966581 9.70064036,13.9748072 L9.64521621,14 Z" id="形状" fill="#FFFFFF"></path>
                    <path d="M9.64521621,14 L0.133133943,14 L1.37693857,13.4486375 C3.17642443,12.6511054 4.14526762,11.8276607 4.33457352,10.9293573 C4.58506196,9.74169666 3.40387943,8.44318766 2.26228561,7.18642673 C1.02567892,5.8281748 -0.256994596,4.42313625 0.0539565605,2.94611825 C0.284290754,1.8570694 1.3596635,0.901182516 3.34197712,0.0244730117 L3.39740129,0 L12.9116429,0 L11.6656789,0.551362465 C9.86475347,1.34745501 8.89734988,2.17017995 8.70804397,3.06488432 C8.45755553,4.2511054 9.63801826,5.5481748 10.7788923,6.80277635 C12.0183781,8.16534705 13.2981725,9.57398457 12.9886609,11.049563 C12.7583267,12.1393316 11.682954,13.0966581 9.70064036,13.9748072 L9.64521621,14 Z M2.71647584,13.4241645 L9.52285116,13.4241645 C11.2885067,12.6323908 12.2379154,11.8183033 12.425062,10.9315167 C12.6755504,9.74385604 11.4943679,8.44534704 10.352774,7.18858613 C9.11400798,5.82673522 7.83349384,4.41881748 8.144445,2.94179949 C8.32727276,2.07804628 9.04346814,1.29562982 10.3247021,0.571516709 L3.51976633,0.571516709 C1.7541108,1.36329048 0.804702063,2.17521851 0.617555531,3.06056555 C0.367067094,4.2511054 1.54752983,5.5481748 2.68840387,6.80277635 C3.92788972,8.16534705 5.20768407,9.57398457 4.89817249,11.049563 C4.71534473,11.9161954 3.99842956,12.7007712 2.71647584,13.4241645 Z" id="形状" fill="#333333"></path>
                    <path d="M7.27349384,3.22467867 L2.09097455,3.22467867 C1.93196198,3.22467867 1.80305681,3.0957735 1.80305681,2.93676093 L1.80305681,2.53367609 C1.80305681,2.37466352 1.93196198,2.24575836 2.09097455,2.24575836 L7.28069178,2.24575836 C7.43970435,2.24575836 7.56860952,2.37466352 7.56860952,2.53367609 L7.56860952,2.93676093 C7.56214073,3.09580232 7.43264646,3.2221382 7.27349384,3.22467867 L7.27349384,3.22467867 Z M8.25241415,6.16863754 L3.06989486,6.16863754 C2.91088228,6.16863754 2.78197712,6.03973237 2.78197712,5.8807198 L2.78197712,5.47763496 C2.78197712,5.31862238 2.91088229,5.18971723 3.06989486,5.18971723 L8.25961209,5.18971723 C8.41862466,5.18971723 8.54752983,5.31862238 8.54752983,5.47763496 L8.54752983,5.8807198 C8.54106104,6.03976119 8.41156676,6.16609707 8.25241415,6.16863754 L8.25241415,6.16863754 Z M10.4621828,9.1125964 L5.27246556,9.1125964 C5.11345298,9.1125964 4.98454782,8.98369124 4.98454782,8.82467867 L4.98454782,8.42159382 C4.98454782,8.26258125 5.11345298,8.13367609 5.27246556,8.13367609 L10.4621828,8.13367609 C10.6211954,8.13367609 10.7501005,8.26258125 10.7501005,8.42159382 L10.7501005,8.82467867 C10.7501005,8.98369124 10.6211954,9.1125964 10.4621828,9.1125964 L10.4621828,9.1125964 Z M10.7069129,11.9341902 L5.51719563,11.9341902 C5.35818306,11.9341902 5.22927789,11.8052851 5.22927789,11.6462725 L5.22927789,11.2431877 C5.22927789,11.0841751 5.35818306,10.9552699 5.51719563,10.9552699 L10.7069129,10.9552699 C10.8659254,10.9552699 10.9948306,11.0841751 10.9948306,11.2431877 L10.9948306,11.6462725 C10.9948306,11.8052851 10.8659254,11.9341902 10.7069129,11.9341902 L10.7069129,11.9341902 Z" id="形状" fill="#333333"></path>
                </g>
            </g>
        </g>
    </g>
</svg>