<?xml version="1.0" encoding="UTF-8"?>
<svg width="16px" height="16px" viewBox="0 0 16 16" version="1.1" xmlns="http://www.w3.org/2000/svg" xmlns:xlink="http://www.w3.org/1999/xlink">
    <!-- Generator: Sketch 63 (92445) - https://sketch.com -->
    <title>service-2</title>
    <desc>Created with Sketch.</desc>
    <g id="service-2" stroke="none" stroke-width="1" fill="none" fill-rule="evenodd">
        <g>
            <rect id="矩形" fill="#D8D8D8" opacity="0" x="0" y="0" width="16" height="16"></rect>
            <g id="编组备份" transform="translate(0.000000, 1.000000)" fill-rule="nonzero">
                <path d="M6.05295407,11.1840786 L5.13428576,11.1840786 C4.81462876,11.1840786 4.55474107,10.9243445 4.55474107,10.6050458 L4.49292399,9.68146287 C4.14047706,9.58640792 3.80478346,9.44527812 3.48956757,9.25994209 L2.77000656,9.88914521 C2.58627034,10.0758379 2.18669909,10.0917081 1.96813797,9.87362055 L1.317894,9.22393971 C1.09249845,8.99764826 1.09249845,8.63057257 1.31754844,8.40513862 L1.95379077,7.67473722 C1.78617777,7.36787746 1.65877019,7.04071454 1.57471004,6.70131665 L0.556328087,6.63356104 C0.555982525,6.63356104 0.555649762,6.63372742 0.55495865,6.63372742 C0.259209375,6.63372742 -1.97530881e-13,6.3741597 -1.97530881e-13,6.055373 L-1.97530881e-13,5.13690946 C-1.97530881e-13,4.81761082 0.259887687,4.55787671 0.579544687,4.55787671 L1.63788376,4.48448974 C1.73326067,4.17653867 1.86474598,3.88095664 2.02959669,3.60390996 L1.29808181,2.7687267 C1.08805734,2.5598413 1.08805734,2.19242005 1.31413121,1.96664054 L1.96368406,1.31729246 C2.1829363,1.09851376 2.56406482,1.09851376 2.78331707,1.31729246 L3.64426384,2.06612379 C3.90891444,1.92547758 4.18824494,1.8143952 4.47720735,1.73488409 L4.5554066,0.555828937 C4.55472827,0.2597469 4.81461596,-6.1817218e-14 5.13427296,-6.1817218e-14 L6.05294127,-6.1817218e-14 C6.37259827,-6.1817218e-14 6.63248596,0.259734112 6.63248596,0.57903275 L6.7134241,1.74802821 C6.99756507,1.8294271 7.27077607,1.9410434 7.53100932,2.08149487 L8.42884157,1.29920809 C8.61325612,1.11319372 9.01214905,1.09715711 9.23071016,1.31524469 L9.88060857,1.96492552 C9.9902283,2.07431487 10.0503432,2.21971939 10.0503432,2.37449245 C10.0503432,2.52927831 9.98989554,2.67484921 9.88027581,2.78423856 L9.13646151,3.6347801 C9.29210307,3.9019244 9.41687103,4.18589624 9.50836226,4.4812261 L10.6350073,4.55870862 L10.6363767,4.55870862 C10.9314477,4.55870862 11.1906442,4.81810997 11.1906442,5.13688386 L11.1906442,6.0553474 C11.1906442,6.37464604 10.9307566,6.63438015 10.6110996,6.63438015 L9.57188155,6.70400435 C9.49059785,7.03114851 9.37004815,7.34516134 9.21124354,7.64210087 L9.89324076,8.4240421 C10.1025869,8.63241556 10.1025869,8.99965762 9.87719135,9.22527076 L9.22694739,9.8749516 C9.00769515,10.0937303 8.62623386,10.0933975 8.40765994,9.87529716 L7.68468171,9.24335514 C7.37458524,9.42869117 7.04434382,9.57117762 6.69770746,9.66913785 L6.63179484,10.6289024 C6.63251156,10.9243445 6.37261106,11.1840786 6.05295407,11.1840786 L6.05295407,11.1840786 Z" id="形状" fill="#FFFFFF"></path>
                <path d="M6.05295407,11.1840786 L5.13428576,11.1840786 C4.81462876,11.1840786 4.55474107,10.9243445 4.55474107,10.6050458 L4.49292399,9.68146287 C4.14047706,9.58640792 3.80478346,9.44527812 3.48956757,9.25994209 L2.77000656,9.88914521 C2.58627034,10.0758379 2.18669909,10.0917081 1.96813797,9.87362055 L1.317894,9.22393971 C1.09249845,8.99764826 1.09249845,8.63057257 1.31754844,8.40513862 L1.95379077,7.67473722 C1.78617777,7.36787746 1.65877019,7.04071454 1.57471004,6.70131665 L0.556328087,6.63356104 C0.555982525,6.63356104 0.555649762,6.63372742 0.55495865,6.63372742 C0.259209375,6.63372742 -1.98951966e-13,6.3741597 -1.98951966e-13,6.055373 L-1.98951966e-13,5.13690946 C-1.98951966e-13,4.81761082 0.259887687,4.55787671 0.579544687,4.55787671 L1.63788376,4.48448974 C1.73326067,4.17653867 1.86474598,3.88095664 2.02959669,3.60390996 L1.29808181,2.7687267 C1.08805734,2.5598413 1.08805734,2.19242005 1.31413121,1.96664054 L1.96368406,1.31729246 C2.1829363,1.09851376 2.56406482,1.09851376 2.78331707,1.31729246 L3.64426384,2.06612379 C3.90891444,1.92547758 4.18824494,1.8143952 4.47720735,1.73488409 L4.5554066,0.555828937 C4.55472827,0.2597469 4.81461596,-6.32383035e-14 5.13427296,-6.32383035e-14 L6.05294127,-6.32383035e-14 C6.37259827,-6.32383035e-14 6.63248596,0.259734112 6.63248596,0.57903275 L6.7134241,1.74802821 C6.99756507,1.8294271 7.27077607,1.9410434 7.53100932,2.08149487 L8.42884157,1.29920809 C8.61325612,1.11319372 9.01214905,1.09715711 9.23071016,1.31524469 L9.88060857,1.96492552 C9.9902283,2.07431487 10.0503432,2.21971939 10.0503432,2.37449245 C10.0503432,2.52927831 9.98989554,2.67484921 9.88027581,2.78423856 L9.13646151,3.6347801 C9.29210307,3.9019244 9.41687103,4.18589624 9.50836226,4.4812261 L10.6350073,4.55870862 L10.6363767,4.55870862 C10.9314477,4.55870862 11.1906442,4.81810997 11.1906442,5.13688386 L11.1906442,6.0553474 C11.1906442,6.37464604 10.9307566,6.63438015 10.6110996,6.63438015 L9.57188155,6.70400435 C9.49059785,7.03114851 9.37004815,7.34516134 9.21124354,7.64210087 L9.89324076,8.4240421 C10.1025869,8.63241556 10.1025869,8.99965762 9.87719135,9.22527076 L9.22694739,9.8749516 C9.00769515,10.0937303 8.62623386,10.0933975 8.40765994,9.87529716 L7.68468171,9.24335514 C7.37458524,9.42869117 7.04434382,9.57117762 6.69770746,9.66913785 L6.63179484,10.6289024 C6.63251156,10.9243445 6.37261106,11.1840786 6.05295407,11.1840786 L6.05295407,11.1840786 Z M5.24698994,10.4850721 L5.94128657,10.4850721 L6.01710529,9.36745004 C6.02798298,9.21183397 6.14050534,9.08218795 6.29304237,9.04952085 C6.73324907,8.9553234 7.1454525,8.77715455 7.51804437,8.51980097 C7.64986961,8.42867517 7.8267714,8.43891404 7.9473211,8.54420785 L8.81203065,9.30106387 L9.30312445,8.81025165 L8.52037691,7.91380165 C8.41965905,7.79835871 8.40594722,7.63074949 8.4865631,7.50047194 C8.71195865,7.13526484 8.86495272,6.73525844 8.94077144,6.31151071 C8.96912026,6.15330762 9.10162382,6.0348825 9.26179787,6.02429807 L10.491241,5.94255362 L10.491241,5.24866655 L9.21364967,5.16163629 C9.0616795,5.15123105 8.93360424,5.04354391 8.89775545,4.89557969 C8.8017918,4.50102547 8.63820052,4.13087814 8.41212664,3.79570927 C8.32333019,3.66430639 8.33426016,3.48955476 8.43876046,3.37009295 L9.30654166,2.3794327 L8.81544787,1.88879965 L7.80149424,2.7731422 C7.68469452,2.87417409 7.51632937,2.88713904 7.38621915,2.80590654 C7.05323885,2.59771225 6.69055306,2.44974802 6.30737677,2.36612219 C6.15573936,2.33284591 6.04407186,2.20365719 6.03314189,2.04853856 L5.94059545,0.698993712 L5.24629881,0.698993712 L5.15819349,2.03778776 C5.14760907,2.1946214 5.03353545,2.32516677 4.8795175,2.35690722 C4.49224567,2.43643751 4.12409491,2.58234117 3.78497129,2.79054825 C3.65553939,2.87024492 3.48819812,2.85658885 3.37208952,2.7562481 L2.3786264,1.8910266 L1.88787816,2.38165965 L2.72902555,3.34091221 C2.83421696,3.46121874 2.84445582,3.63768537 2.7536116,3.76943382 C2.51694051,4.11279376 2.34720591,4.49266802 2.24886172,4.89831859 C2.21298148,5.04653798 2.08511676,5.15436458 1.93296751,5.16470795 L0.699428862,5.24952405 L0.699428862,5.94323195 L1.8848193,6.02122642 C2.04532612,6.03197722 2.17784249,6.15058154 2.20584575,6.30878461 C2.28336666,6.74378229 2.44251684,7.15404035 2.67849681,7.52811685 C2.7608044,7.65866222 2.74782665,7.82796166 2.646398,7.94433902 L1.8919993,8.80921496 L2.3830931,9.29984801 L3.22559714,8.56210024 C3.34545346,8.45742715 3.52083063,8.44676907 3.65248052,8.53615755 C4.02984626,8.79265362 4.44752747,8.96826275 4.89353192,9.0580191 C5.048241,9.0892476 5.16298015,9.22013854 5.17356456,9.37748411 L5.24698994,10.4850721 Z" id="形状" fill="#3E3A39"></path>
                <path d="M5.59532853,7.75270609 C4.40344921,7.75270609 3.43356104,6.78338105 3.43356104,5.59203929 C3.43356104,4.40069753 4.40344921,3.43153886 5.59532853,3.43153886 C6.78720784,3.43153886 7.757096,4.40068471 7.757096,5.59203929 C7.757096,6.78339386 6.78720783,7.75270609 5.59532853,7.75270609 Z M5.59532853,4.13054538 C4.78901884,4.13054538 4.13297711,4.78620314 4.13297711,5.59203929 C4.13297711,6.39804181 4.78901884,7.05369959 5.59532853,7.05369959 C6.40163821,7.05369959 7.05767994,6.39804183 7.05767994,5.59203929 C7.05767994,4.78620314 6.40163821,4.13054538 5.59532853,4.13054538 L5.59532853,4.13054538 Z" id="形状" fill="#3E3A39"></path>
            </g>
            <g transform="translate(3.179791, 3.781506)" fill-rule="nonzero" id="形状">
                <path d="M6.05295407,11.1840786 L5.13428576,11.1840786 C4.81462876,11.1840786 4.55474107,10.9243445 4.55474107,10.6050458 L4.49292399,9.68146287 C4.14047706,9.58640792 3.80478346,9.44527812 3.48956757,9.25994209 L2.77000656,9.88914521 C2.58627034,10.0758379 2.18669909,10.0917081 1.96813797,9.87362055 L1.317894,9.22393971 C1.09249845,8.99764826 1.09249845,8.63057257 1.31754844,8.40513862 L1.95379077,7.67473722 C1.78617777,7.36787746 1.65877019,7.04071454 1.57471004,6.70131665 L0.556328087,6.63356104 C0.555982525,6.63356104 0.555649762,6.63372742 0.55495865,6.63372742 C0.259209375,6.63372742 -1.97530881e-13,6.3741597 -1.97530881e-13,6.055373 L-1.97530881e-13,5.13690946 C-1.97530881e-13,4.81761082 0.259887687,4.55787671 0.579544687,4.55787671 L1.63788376,4.48448974 C1.73326067,4.17653867 1.86474598,3.88095664 2.02959669,3.60390996 L1.29808181,2.7687267 C1.08805734,2.5598413 1.08805734,2.19242005 1.31413121,1.96664054 L1.96368406,1.31729246 C2.1829363,1.09851376 2.56406482,1.09851376 2.78331707,1.31729246 L3.64426384,2.06612379 C3.90891444,1.92547758 4.18824494,1.8143952 4.47720735,1.73488409 L4.5554066,0.555828937 C4.55472827,0.2597469 4.81461596,-6.1817218e-14 5.13427296,-6.1817218e-14 L6.05294127,-6.1817218e-14 C6.37259827,-6.1817218e-14 6.63248596,0.259734112 6.63248596,0.57903275 L6.7134241,1.74802821 C6.99756507,1.8294271 7.27077607,1.9410434 7.53100932,2.08149487 L8.42884157,1.29920809 C8.61325612,1.11319372 9.01214905,1.09715711 9.23071016,1.31524469 L9.88060857,1.96492552 C9.9902283,2.07431487 10.0503432,2.21971939 10.0503432,2.37449245 C10.0503432,2.52927831 9.98989554,2.67484921 9.88027581,2.78423856 L9.13646151,3.6347801 C9.29210307,3.9019244 9.41687103,4.18589624 9.50836226,4.4812261 L10.6350073,4.55870862 L10.6363767,4.55870862 C10.9314477,4.55870862 11.1906442,4.81810997 11.1906442,5.13688386 L11.1906442,6.0553474 C11.1906442,6.37464604 10.9307566,6.63438015 10.6110996,6.63438015 L9.57188155,6.70400435 C9.49059785,7.03114851 9.37004815,7.34516134 9.21124354,7.64210087 L9.89324076,8.4240421 C10.1025869,8.63241556 10.1025869,8.99965762 9.87719135,9.22527076 L9.22694739,9.8749516 C9.00769515,10.0937303 8.62623386,10.0933975 8.40765994,9.87529716 L7.68468171,9.24335514 C7.37458524,9.42869117 7.04434382,9.57117762 6.69770746,9.66913785 L6.63179484,10.6289024 C6.63251156,10.9243445 6.37261106,11.1840786 6.05295407,11.1840786 L6.05295407,11.1840786 Z" fill="#FFFFFF"></path>
                <path d="M6.05295407,11.1840786 L5.13428576,11.1840786 C4.81462876,11.1840786 4.55474107,10.9243445 4.55474107,10.6050458 L4.49292399,9.68146287 C4.14047706,9.58640792 3.80478346,9.44527812 3.48956757,9.25994209 L2.77000656,9.88914521 C2.58627034,10.0758379 2.18669909,10.0917081 1.96813797,9.87362055 L1.317894,9.22393971 C1.09249845,8.99764826 1.09249845,8.63057257 1.31754844,8.40513862 L1.95379077,7.67473722 C1.78617777,7.36787746 1.65877019,7.04071454 1.57471004,6.70131665 L0.556328087,6.63356104 C0.555982525,6.63356104 0.555649762,6.63372742 0.55495865,6.63372742 C0.259209375,6.63372742 -1.98951966e-13,6.3741597 -1.98951966e-13,6.055373 L-1.98951966e-13,5.13690946 C-1.98951966e-13,4.81761082 0.259887687,4.55787671 0.579544687,4.55787671 L1.63788376,4.48448974 C1.73326067,4.17653867 1.86474598,3.88095664 2.02959669,3.60390996 L1.29808181,2.7687267 C1.08805734,2.5598413 1.08805734,2.19242005 1.31413121,1.96664054 L1.96368406,1.31729246 C2.1829363,1.09851376 2.56406482,1.09851376 2.78331707,1.31729246 L3.64426384,2.06612379 C3.90891444,1.92547758 4.18824494,1.8143952 4.47720735,1.73488409 L4.5554066,0.555828937 C4.55472827,0.2597469 4.81461596,-6.32383035e-14 5.13427296,-6.32383035e-14 L6.05294127,-6.32383035e-14 C6.37259827,-6.32383035e-14 6.63248596,0.259734112 6.63248596,0.57903275 L6.7134241,1.74802821 C6.99756507,1.8294271 7.27077607,1.9410434 7.53100932,2.08149487 L8.42884157,1.29920809 C8.61325612,1.11319372 9.01214905,1.09715711 9.23071016,1.31524469 L9.88060857,1.96492552 C9.9902283,2.07431487 10.0503432,2.21971939 10.0503432,2.37449245 C10.0503432,2.52927831 9.98989554,2.67484921 9.88027581,2.78423856 L9.13646151,3.6347801 C9.29210307,3.9019244 9.41687103,4.18589624 9.50836226,4.4812261 L10.6350073,4.55870862 L10.6363767,4.55870862 C10.9314477,4.55870862 11.1906442,4.81810997 11.1906442,5.13688386 L11.1906442,6.0553474 C11.1906442,6.37464604 10.9307566,6.63438015 10.6110996,6.63438015 L9.57188155,6.70400435 C9.49059785,7.03114851 9.37004815,7.34516134 9.21124354,7.64210087 L9.89324076,8.4240421 C10.1025869,8.63241556 10.1025869,8.99965762 9.87719135,9.22527076 L9.22694739,9.8749516 C9.00769515,10.0937303 8.62623386,10.0933975 8.40765994,9.87529716 L7.68468171,9.24335514 C7.37458524,9.42869117 7.04434382,9.57117762 6.69770746,9.66913785 L6.63179484,10.6289024 C6.63251156,10.9243445 6.37261106,11.1840786 6.05295407,11.1840786 L6.05295407,11.1840786 Z M5.24698994,10.4850721 L5.94128657,10.4850721 L6.01710529,9.36745004 C6.02798298,9.21183397 6.14050534,9.08218795 6.29304237,9.04952085 C6.73324907,8.9553234 7.1454525,8.77715455 7.51804437,8.51980097 C7.64986961,8.42867517 7.8267714,8.43891404 7.9473211,8.54420785 L8.81203065,9.30106387 L9.30312445,8.81025165 L8.52037691,7.91380165 C8.41965905,7.79835871 8.40594722,7.63074949 8.4865631,7.50047194 C8.71195865,7.13526484 8.86495272,6.73525844 8.94077144,6.31151071 C8.96912026,6.15330762 9.10162382,6.0348825 9.26179787,6.02429807 L10.491241,5.94255362 L10.491241,5.24866655 L9.21364967,5.16163629 C9.0616795,5.15123105 8.93360424,5.04354391 8.89775545,4.89557969 C8.8017918,4.50102547 8.63820052,4.13087814 8.41212664,3.79570927 C8.32333019,3.66430639 8.33426016,3.48955476 8.43876046,3.37009295 L9.30654166,2.3794327 L8.81544787,1.88879965 L7.80149424,2.7731422 C7.68469452,2.87417409 7.51632937,2.88713904 7.38621915,2.80590654 C7.05323885,2.59771225 6.69055306,2.44974802 6.30737677,2.36612219 C6.15573936,2.33284591 6.04407186,2.20365719 6.03314189,2.04853856 L5.94059545,0.698993712 L5.24629881,0.698993712 L5.15819349,2.03778776 C5.14760907,2.1946214 5.03353545,2.32516677 4.8795175,2.35690722 C4.49224567,2.43643751 4.12409491,2.58234117 3.78497129,2.79054825 C3.65553939,2.87024492 3.48819812,2.85658885 3.37208952,2.7562481 L2.3786264,1.8910266 L1.88787816,2.38165965 L2.72902555,3.34091221 C2.83421696,3.46121874 2.84445582,3.63768537 2.7536116,3.76943382 C2.51694051,4.11279376 2.34720591,4.49266802 2.24886172,4.89831859 C2.21298148,5.04653798 2.08511676,5.15436458 1.93296751,5.16470795 L0.699428862,5.24952405 L0.699428862,5.94323195 L1.8848193,6.02122642 C2.04532612,6.03197722 2.17784249,6.15058154 2.20584575,6.30878461 C2.28336666,6.74378229 2.44251684,7.15404035 2.67849681,7.52811685 C2.7608044,7.65866222 2.74782665,7.82796166 2.646398,7.94433902 L1.8919993,8.80921496 L2.3830931,9.29984801 L3.22559714,8.56210024 C3.34545346,8.45742715 3.52083063,8.44676907 3.65248052,8.53615755 C4.02984626,8.79265362 4.44752747,8.96826275 4.89353192,9.0580191 C5.048241,9.0892476 5.16298015,9.22013854 5.17356456,9.37748411 L5.24698994,10.4850721 Z" fill="#3E3A39"></path>
                <path d="M5.59532853,7.75270609 C4.40344921,7.75270609 3.43356104,6.78338105 3.43356104,5.59203929 C3.43356104,4.40069753 4.40344921,3.43153886 5.59532853,3.43153886 C6.78720784,3.43153886 7.757096,4.40068471 7.757096,5.59203929 C7.757096,6.78339386 6.78720783,7.75270609 5.59532853,7.75270609 Z M5.59532853,4.13054538 C4.78901884,4.13054538 4.13297711,4.78620314 4.13297711,5.59203929 C4.13297711,6.39804181 4.78901884,7.05369959 5.59532853,7.05369959 C6.40163821,7.05369959 7.05767994,6.39804183 7.05767994,5.59203929 C7.05767994,4.78620314 6.40163821,4.13054538 5.59532853,4.13054538 L5.59532853,4.13054538 Z" fill="#3E3A39"></path>
            </g>
        </g>
    </g>
</svg>