<?xml version="1.0" encoding="UTF-8"?>
<svg width="15px" height="15px" viewBox="0 0 15 15" version="1.1" xmlns="http://www.w3.org/2000/svg" xmlns:xlink="http://www.w3.org/1999/xlink">
    <!-- Generator: Sketch 63 (92445) - https://sketch.com -->
    <title>timer</title>
    <desc>Created with Sketch.</desc>
    <g id="timer" stroke="none" stroke-width="1" fill="none" fill-rule="evenodd">
        <g id="timer-2">
            <g>
                <circle id="椭圆形" fill="#FFFFFF" cx="7" cy="8" r="6.5"></circle>
                <g id="timer" fill="#333333" fill-rule="nonzero">
                    <path d="M7.284375,0.846875 C8.23194249,0.846875 9.14989612,1.03230004 10.0155322,1.39853069 C10.8524994,1.75269326 11.6035478,2.25898218 12.2457976,2.90281385 C12.8909528,3.54955813 13.397399,4.29984881 13.7499092,5.132911 C14.1159127,5.99801014 14.3015625,6.91747567 14.3015625,7.8640625 C14.3015625,8.81064933 14.1159127,9.73011486 13.7499068,10.5952197 C13.3957442,11.4321869 12.8894553,12.1832353 12.2457107,12.8253982 C11.6007372,13.4703717 10.8509176,13.9761011 10.0155265,14.3295967 C9.15042736,14.6956002 8.23096183,14.88125 7.284375,14.88125 C6.33680751,14.88125 5.41885388,14.695825 4.5532178,14.3295943 C3.71625064,13.9754317 2.96520218,13.4691428 2.32303932,12.8253982 C1.67806583,12.1804247 1.17233642,11.4306051 0.818840775,10.595214 C0.452837292,9.73011486 0.2671875,8.81064933 0.2671875,7.8640625 C0.2671875,6.91747567 0.452837292,5.99801014 0.818843187,5.1329053 C1.17300576,4.29593814 1.67929468,3.54488968 2.32312635,2.9026399 C2.96987063,2.25748467 3.72016131,1.75103846 4.5532235,1.39852827 C5.41832264,1.03252479 6.33778817,0.846875 7.284375,0.846875 Z M7.284375,1.734375 C6.45571762,1.734375 5.65192744,1.89629514 4.89834532,2.21553155 C4.16695183,2.52502648 3.51239735,2.96655112 2.95039818,3.53008568 C2.3878699,4.09261396 1.94500313,4.74897118 1.6358286,5.47806932 C1.31660764,6.23161494 1.1546875,7.03540512 1.1546875,7.8640625 C1.1546875,8.69271988 1.31660764,9.49651006 1.63584405,10.2500922 C1.94533898,10.9814857 2.38686362,11.6360401 2.95039818,12.1980393 C3.51292646,12.7605676 4.16928368,13.2034344 4.89838182,13.5126089 C5.65192744,13.8318299 6.45571762,13.99375 7.284375,13.99375 C8.11303238,13.99375 8.91682256,13.8318299 9.67040468,13.5125935 C10.4017982,13.2030985 11.0563526,12.7615739 11.6182554,12.1981359 C12.1820706,11.6327802 12.6244082,10.9775942 12.9329214,10.2500557 C13.2521424,9.49651006 13.4140625,8.69271988 13.4140625,7.8640625 C13.4140625,7.03540512 13.2521424,6.23161494 12.932906,5.47803282 C12.623411,4.74663933 12.1818864,4.09208485 11.6183518,3.53008568 C11.0558235,2.9675574 10.3994663,2.52469063 9.67043543,2.21554456 C8.91476701,1.89607498 8.11245658,1.734375 7.284375,1.734375 Z M6.9703125,3.9765625 C7.18884892,3.9765625 7.36949343,4.13292519 7.40693868,4.3403432 L7.4140625,4.4203125 L7.414,7.732 L10.7265625,7.7328125 C10.9177828,7.7328125 11.0799978,7.8525284 11.1426488,8.02102807 L11.1631977,8.09602218 L11.1703358,8.17574901 C11.1720968,8.39404274 11.0150692,8.57551877 10.8079363,8.61315179 L10.728125,8.6203125 L6.6265625,8.6203125 L6.5265625,8.5203125 L6.5265625,4.4203125 C6.5265625,4.17445903 6.72445903,3.9765625 6.9703125,3.9765625 Z" id="形状结合"></path>
                </g>
            </g>
        </g>
    </g>
</svg>