<?xml version="1.0" encoding="UTF-8"?>
<svg width="16px" height="16px" viewBox="0 0 16 16" version="1.1" xmlns="http://www.w3.org/2000/svg" xmlns:xlink="http://www.w3.org/1999/xlink">
    <!-- Generator: Sketch 63 (92445) - https://sketch.com -->
    <title>user-2</title>
    <desc>Created with Sketch.</desc>
    <g id="user-2" stroke="none" stroke-width="1" fill="none" fill-rule="evenodd">
        <g>
            <rect id="矩形" fill="#D8D8D8" opacity="0" x="0" y="0" width="16" height="16"></rect>
            <g id="编组-37" transform="translate(1.000000, 1.000000)">
                <path d="M7.41133347,0 C5.5887938,0 4.11133347,1.47746033 4.11133347,3.3 L4.11527662,3.46221487 C4.15197024,4.21578184 4.44322805,4.9188377 4.9248975,5.4701446 L5.02194,5.57634 L4.96749319,5.60229231 C3.11372343,6.50355522 1.48967729,7.67024612 0.0936323017,9.10317769 C0.0335971699,9.16479908 -3.00133252e-13,9.24742933 -3.00133252e-13,9.3334608 L-3.00133252e-13,13.482845 C-3.00133252e-13,13.665099 0.147746033,13.812845 0.33,13.812845 L13.8816824,13.812845 C14.0639364,13.812845 14.2116824,13.665099 14.2116824,13.482845 L14.2116824,9.3334608 C14.2116824,9.23973859 14.171831,9.1504372 14.1020743,9.08784442 L13.6739356,8.70498254 L13.2427472,8.32500962 C11.768252,7.03622014 10.6569091,6.17882078 9.88283415,5.742568 L9.72114,5.65488 L9.76582349,5.61253925 C10.3624432,5.00552955 10.7113335,4.18207254 10.7113335,3.3 C10.7113335,1.47746033 9.23387315,0 7.41133347,0 Z" id="路径" fill="#FFFFFF" fill-rule="nonzero"></path>
                <path d="M7.41133347,-7.28306304e-15 C9.23387315,-7.28306304e-15 10.7113335,1.47746033 10.7113335,3.3 C10.7113335,4.1085665 10.4181688,4.86787966 9.90975885,5.45636884 L9.76582349,5.61253925 L9.72114,5.65488 L9.88283415,5.742568 C9.98604414,5.80073504 10.09525,5.86638913 10.2105131,5.93955455 L10.23,5.94 L10.2302189,5.95209868 C10.9198472,6.3923309 11.8238635,7.09831311 12.9551762,8.07515365 L13.2427472,8.32500962 L13.6739356,8.70498254 L14.1020743,9.08784442 C14.1543918,9.134789 14.1898876,9.19675718 14.2043657,9.26434629 L14.2116824,9.3334608 L14.2116824,13.482845 C14.2116824,13.6423172 14.0985644,13.7753693 13.9481889,13.8061406 L13.8816824,13.812845 L11.219,13.812 L11.22,13.86 L10.56,13.86 L10.559,13.812 L3.3,13.812 L3.3,13.86 L2.64,13.86 L2.639,13.812 L0.33,13.812845 C0.170527778,13.812845 0.0374756946,13.6997269 0.00670442712,13.5493515 L1.19333876e-12,13.482845 L1.19333876e-12,9.3334608 C1.19333876e-12,9.24742933 0.0335971699,9.16479908 0.0936323017,9.10317769 C1.31685583,7.8476339 2.71512443,6.79649309 4.28959679,5.94920858 L4.29,5.94 L4.310618,5.93791398 L4.63657999,5.76724096 L4.63657999,5.76724096 L4.96749319,5.60229231 L5.02194,5.57634 L4.9248975,5.4701446 C4.49139499,4.97396839 4.21212592,4.35487552 4.13385748,3.68666839 L4.11527662,3.46221487 L4.11133347,3.3 C4.11133347,1.47746033 5.5887938,-7.28306304e-15 7.41133347,-7.28306304e-15 Z M4.37629223,6.65351279 L4.36447981,6.6606471 C3.20543448,7.3076994 2.14798714,8.07242723 1.19165772,8.95506488 L0.83777315,9.29158147 L0.66,9.46968 L0.66,13.15248 L2.639,13.152 L2.64,11.22 L3.3,11.22 L3.3,13.152 L10.559,13.152 L10.56,11.22 L11.22,11.22 L11.219,13.152 L13.55112,13.15248 L13.55112,9.48024 L13.0411064,9.02637575 C11.8288721,7.95786949 10.8555783,7.17371003 10.1364794,6.67998478 C9.80514093,7.97589446 8.6301875,8.91 7.26,8.91 C5.88004521,8.91 4.69868254,7.96264805 4.37629223,6.65351279 Z M9.96549902,2.62973986 L9.92614038,2.64618426 C8.28922893,3.32523466 7.01964534,2.87418268 6.57605278,2.93749024 C6.35886446,2.96848639 6.02607478,3.34065976 5.4563166,3.61603491 C5.32422179,3.67987889 5.11310498,3.74390274 4.82296616,3.80810647 C4.95059461,4.47482263 5.33297576,5.06489559 5.89138618,5.45885691 C6.13484583,5.6306189 6.04051345,5.9974546 5.77068735,6.05173591 L5.69966863,6.05850092 L5.54796,6.05748 L5.25282094,6.19741837 C5.16187827,6.24163381 5.07151032,6.2865138 4.98171687,6.33205844 C5.17055641,7.43260912 6.129801,8.25 7.26,8.25 C8.38604113,8.25 9.34287001,7.43851116 9.53516132,6.34221541 L9.53960902,6.30370175 C9.40106063,6.22633038 9.27839262,6.16688698 9.17183665,6.12546402 L9.07065995,6.09005129 L9.00954786,6.07321078 C8.7317587,6.00607459 8.66483281,5.64158803 8.90065093,5.48014485 C9.61549625,4.99075543 10.0513335,4.18246341 10.0513335,3.3 C10.0513335,3.06840455 10.0215118,2.84377432 9.96549902,2.62973986 Z" id="形状结合" fill="#333333"></path>
            </g>
        </g>
    </g>
</svg>