<?xml version="1.0" standalone="no"?><!DOCTYPE svg PUBLIC "-//W3C//DTD SVG 1.1//EN" "http://www.w3.org/Graphics/SVG/1.1/DTD/svg11.dtd"><svg t="1648802694919" class="icon" viewBox="0 0 1024 1024" version="1.1" xmlns="http://www.w3.org/2000/svg" p-id="14995" xmlns:xlink="http://www.w3.org/1999/xlink" width="20" height="20"><defs><style type="text/css">@font-face { font-family: feedback-iconfont; src: url("//at.alicdn.com/t/font_1031158_u69w8yhxdu.woff2?t=1630033759944") format("woff2"), url("//at.alicdn.com/t/font_1031158_u69w8yhxdu.woff?t=1630033759944") format("woff"), url("//at.alicdn.com/t/font_1031158_u69w8yhxdu.ttf?t=1630033759944") format("truetype"); }
</style></defs><path d="M512 0.00064a253.183684 253.183684 0 0 1 253.439683 239.103701l0.32 13.439983h40.383949c72.959909 0 133.759833 55.295931 140.415825 127.551841l44.799944 490.879386A140.479824 140.479824 0 0 1 851.071576 1023.99936H172.992424a140.607824 140.607824 0 0 1-140.415825-152.959809l44.799944-490.943386a140.671824 140.671824 0 0 1 140.415825-127.615841h40.447949C258.240317 113.024499 371.840175 0.00064 512 0.00064z m294.143632 336.639579H217.792368a56.31993 56.31993 0 0 0-55.039931 43.967945l-1.087999 7.039991-44.799944 491.007387a56.19193 56.19193 0 0 0 49.087939 60.799924l7.039991 0.383999h678.015152a56.25593 56.25593 0 0 0 56.31993-54.143932l-0.128-7.039991-44.863944-490.943387a56.25593 56.25593 0 0 0-48.959939-50.559936l-7.231991-0.512z m-117.951852 189.439763v84.095895H335.80822V526.079982h352.38356zM512 84.096535a168.831789 168.831789 0 0 0-168.767789 156.799804l-0.384 11.519985h338.303578A168.767789 168.767789 0 0 0 512 84.160535z" fill="#999999" p-id="14996"></path></svg>