<?xml version="1.0" encoding="UTF-8"?>
<svg t="1608286639940" viewBox="0 0 1280 1024" version="1.1" xmlns="http://www.w3.org/2000/svg" p-id="10148" width="200" height="200">
  <path d="M991.938004 287.982001m-127.992001 0a127.992 127.992 0 1 0 255.984001 0 127.992 127.992 0 1 0-255.984001 0Z" fill="#FDC51F" p-id="10149"></path>
  <path d="M411.622274 385.12793l100.025748 103.545528 153.526405 161.909881 1.343916-1.663896 45.053184 46.71708-336.298982 323.819761-285.934129-12.351228L0 883.272795l411.622274-498.144865z m401.958877 85.882632l406.88657 435.556778v115.51278L1018.624336 1023.936004H555.869258l336.682957-325.099681-144.054996-149.110681 65.083932-78.71508z" fill="#78B740" p-id="10150"></path>
  <path d="M1215.924005 0a63.996 63.996 0 0 1 63.996 63.996v895.944004a63.996 63.996 0 0 1-63.996 63.996H555.869258l66.299856-63.996H1215.924005V63.996h-527.967002l66.299856-63.996H1215.924005zM570.07637 0L503.776514 63.996H63.996v895.944004h373.864634l-66.235861 63.996H63.996a63.996 63.996 0 0 1-63.996-63.996V63.996a63.996 63.996 0 0 1 63.996-63.996h506.08037z" fill="#A3A3A4" p-id="10151"></path>
</svg>
