<?xml version="1.0" encoding="UTF-8"?>
<svg width="30px" height="30px" viewBox="0 0 30 30" version="1.1" xmlns="http://www.w3.org/2000/svg" xmlns:xlink="http://www.w3.org/1999/xlink">
    <title>赋予数据3</title>
    <g id="赋予数据3" stroke="none" stroke-width="1" fill="none" fill-rule="evenodd">
        <g id="编组" transform="translate(3.000000, 1.000000)" fill="#333333" fill-rule="nonzero">
            <path d="M12,0 C18.448,0 23.708,2.966 23.988,6.68799999 L24,7 L24,21 C24,24.866 18.628,28 12,28 C5.55200001,28 0.291999996,25.034 0.0119999961,21.312 L0,21 L0,7 L0.0119999961,6.68799999 C0.291999996,2.968 5.55200001,0 12,0 Z M12,21 C7.82399999,21 4.146,19.756 1.99600001,17.868 L2,20.926 L2.00800001,21.162 C2.18800001,23.594 6.48600001,26 12,26 C17.492,26 21.728,23.628 21.988,21.232 L22,21 L22,17.87 C19.852,19.756 16.174,21 12,21 Z M12,14 C7.82399999,14 4.146,12.756 1.99600001,10.868 L2,14 L2,14 C2,16.474 6.33200001,19 12,19 C17.668,19 22,16.474 22,14 L22.004,10.868 C19.854,12.756 16.176,14 12,14 Z M12,2 C11.1274281,2.0001165 10.2559447,2.06160152 9.39199999,2.184 L9.44400001,2.17600001 C8.67232939,2.28490501 7.90915825,2.44729607 7.16000001,2.662 L7.31,2.62200001 C4.11000001,3.52000001 2,5.27399999 2,7 C2,9.47399999 6.33200001,12 12,12 C17.648,12 21.97,9.492 22,7.026 L21.994,6.90600001 L21.988,6.81199999 L21.978,6.68799999 C21.9625424,6.58321611 21.9398209,6.47963321 21.91,6.37799999 L21.954,6.55999999 C21.9398136,6.48925807 21.9224629,6.41918772 21.902,6.34999999 L21.91,6.37799999 C21.8912868,6.31183997 21.8699365,6.24645444 21.846,6.18199999 L21.902,6.34999999 C21.8778162,6.26937094 21.8497841,6.18994659 21.818,6.11199999 L21.846,6.18199999 C21.8177884,6.10737175 21.7864269,6.03397258 21.752,5.962 L21.818,6.11199999 C21.785998,6.03384145 21.7506317,5.95710312 21.712,5.882 L21.752,5.962 C21.7215162,5.89756437 21.6888303,5.83419375 21.654,5.77200001 L21.714,5.882 C21.5379175,5.54861255 21.3149868,5.24216699 21.052,4.972 C20.8376347,4.74709064 20.6055555,4.53975769 20.358,4.352 L20.424,4.40399999 C20.3582349,4.35215783 20.2915578,4.30148323 20.224,4.25199999 L20.358,4.352 C20.2630621,4.27899835 20.166367,4.20831088 20.068,4.13999999 L20.224,4.25199999 C20.137286,4.18884188 20.0492669,4.12749527 19.96,4.06799999 L20.068,4.13999999 C19.975292,4.07606304 19.8812719,4.0140498 19.786,3.95400001 L19.96,4.06799999 C19.8251437,3.977469 19.6877555,3.89076772 19.548,3.808 L19.786,3.95400001 C19.682001,3.8878293 19.5766451,3.82381562 19.47,3.76199999 L19.55,3.808 C19.4811688,3.76778815 19.4118298,3.72845164 19.342,3.68999999 L19.47,3.76199999 C19.3631515,3.69995034 19.2551319,3.63993948 19.146,3.582 L19.342,3.68999999 C18.9056097,3.44812106 18.453226,3.23629591 17.988,3.05600001 C17.3347286,2.80155815 16.6635732,2.59566585 15.98,2.44000001 C15.5092552,2.33202316 15.0341665,2.24394492 14.556,2.17600001 L14.616,2.186 C13.8376683,2.07186505 13.0525955,2.00972737 12.266,2 L12,2 Z" id="形状"></path>
        </g>
    </g>
</svg>