<?xml version="1.0" standalone="no"?><!DOCTYPE svg PUBLIC "-//W3C//DTD SVG 1.1//EN" "http://www.w3.org/Graphics/SVG/1.1/DTD/svg11.dtd"><svg t="1648803513228" class="icon" viewBox="0 0 1024 1024" version="1.1" xmlns="http://www.w3.org/2000/svg" p-id="15621" xmlns:xlink="http://www.w3.org/1999/xlink" width="20" height="20"><defs><style type="text/css">@font-face { font-family: feedback-iconfont; src: url("//at.alicdn.com/t/font_1031158_u69w8yhxdu.woff2?t=1630033759944") format("woff2"), url("//at.alicdn.com/t/font_1031158_u69w8yhxdu.woff?t=1630033759944") format("woff"), url("//at.alicdn.com/t/font_1031158_u69w8yhxdu.ttf?t=1630033759944") format("truetype"); }
</style></defs><path d="M877.738667 0C958.520889 0 1024 67.925333 1024 151.722667v720.554666C1024 956.074667 958.520889 1024 877.738667 1024H146.204444C65.479111 1024 0 956.074667 0 872.277333V151.722667C0 67.925333 65.479111 0 146.261333 0H877.795556z m-224.824889 445.610667a42.837333 42.837333 0 0 0-61.496889 8.647111l-149.048889 202.922666-80.327111-116.849777a42.894222 42.894222 0 0 0-71.452445 0l-139.776 203.093333a46.648889 46.648889 0 0 0-8.192 26.453333c0 25.144889 19.683556 45.511111 43.918223 45.511111h651.264a42.894222 42.894222 0 0 0 26.567111-9.272888 46.648889 46.648889 0 0 0 8.305778-63.772445l-211.456-288.085333a44.714667 44.714667 0 0 0-8.305778-8.647111zM256 208.611556c-60.586667 0-109.738667 50.915556-109.738667 113.777777 0 62.805333 49.152 113.777778 109.738667 113.777778s109.738667-50.972444 109.738667-113.777778c0-62.862222-49.152-113.777778-109.738667-113.777777z" fill="#8E8E8E" p-id="15622"></path></svg>