<?xml version="1.0" standalone="no"?><!DOCTYPE svg PUBLIC "-//W3C//DTD SVG 1.1//EN" "http://www.w3.org/Graphics/SVG/1.1/DTD/svg11.dtd"><svg t="1641866565665" class="icon" viewBox="0 0 1024 1024" version="1.1" xmlns="http://www.w3.org/2000/svg" p-id="14858" xmlns:xlink="http://www.w3.org/1999/xlink" width="200" height="200"><defs><style type="text/css"></style></defs><path d="M324.224 414.72L199.68 539.136l-7.872 8.32a201.6 201.6 0 0 0 292.992 276.8l124.416-124.48 54.336 54.336-124.48 124.48-9.728 9.28a278.4 278.4 0 0 1-384-403.008L269.888 360.32l54.336 54.336z m407.232-67.84l-384.64 384.64-54.272-54.4 384.64-384.64 54.272 54.4z m147.136-201.472a278.4 278.4 0 0 1 9.28 384l-9.28 9.728-124.48 124.48-54.336-54.336 124.48-124.416a201.6 201.6 0 0 0-276.8-292.992l-8.32 7.872L414.72 324.224l-54.336-54.336 124.48-124.48a278.4 278.4 0 0 1 393.728 0z" fill="#333333" p-id="14859"></path></svg>