<svg height="30" viewBox="0 0 30 30" width="30" xmlns="http://www.w3.org/2000/svg"><path d="m23.1739012 13.9999678-3.6906191-3.2930549c-.4376502-.3905052-.4376504-1.02352445-.0000005-1.41402942.4376498-.39050497 1.1470922-.39050475 1.5847424.00000049l5.6037228 5.00007363c.4376502.3905052.4376504 1.0235244.0000006 1.4140294l-5.6037189 5.0001251c-.4376499.3905049-1.1470923.3905047-1.5847425-.0000005-.2191021-.1950055-.3283762-.451017-.3283763-.7070148s.1098124-.5120231.3283758-.7070147l3.6906164-3.2930526-16.34780305.0000027 3.69061905 3.2930549c.4376502.3905052.4376504 1.0235244.0000005 1.4140294-.4376498.390505-1.14709223.3905048-1.58474241-.0000005l-5.6037228-5.0000736c-.43765019-.3905052-.43765043-1.0235244-.00000055-1.4140294l5.6037189-5.00012506c.43764988-.39050498 1.14709226-.39050476 1.58474246.00000049.2191021.19500546.3283762.45101702.3283763.70701481.0000001.25599776-.1098124.51202306-.3283758.70701466l-3.69061643 3.2930526z" fill="#b4b4b9"/></svg>