<svg height="30" viewBox="0 0 30 30" width="30" xmlns="http://www.w3.org/2000/svg"><g fill="#b4b4b9" fill-rule="nonzero"><path d="m14.7631386 24h8.0925653c.6320285 0 1.1442961-.5123124 1.1442961-1.1443413v-8.0925709c0-.632029-.5122676-1.1442969-1.1442961-1.1442969s-1.1442961.5122679-1.1442961 1.1442969v5.3297776l-7.7575279-7.7575334c-.4471091-.4471093-1.1714085-.4471093-1.6185398 0-.4471313.4471094-.447109 1.1714093 0 1.6185409l7.757528 7.7575333h-5.3297739c-.3156143-.0000222-.6020939.1278725-.8092588.3350376-.2071649.207165-.3354373.4932448-.3350373.8092593 0 .632029.5122675 1.1442969 1.1442961 1.1442969z"/><path d="m8.76313861 18h8.09256529c.6320285 0 1.1442961-.5123124 1.1442961-1.1443413v-8.09257095c0-.63202897-.5122676-1.14429689-1.1442961-1.14429689s-1.1442961.51226792-1.1442961 1.14429689v5.32977765l-7.75752794-7.75753336c-.44710907-.44710939-1.17140843-.44710939-1.61853972 0-.4471313.44710938-.44710907 1.17140924 0 1.61854085l7.75752796 7.75753331h-5.32977393c-.31561425-.0000222-.60209385.1278725-.80925875.3350376-.20716491.207165-.33543737.4932448-.33503735.8092593 0 .632029.51226757 1.1442969 1.1442961 1.1442969z" transform="matrix(-1 0 0 -1 24 24)"/></g></svg>