<?xml version="1.0" encoding="utf-8"?>
<!-- Generator: Adobe Illustrator 15.0.0, SVG Export Plug-In . SVG Version: 6.00 Build 0)  -->
<!DOCTYPE svg PUBLIC "-//W3C//DTD SVG 1.1 Tiny//EN" "http://www.w3.org/Graphics/SVG/1.1/DTD/svg11-tiny.dtd">
<svg version="1.1" baseProfile="tiny" id="_x31_0-12"
	 xmlns="http://www.w3.org/2000/svg" xmlns:xlink="http://www.w3.org/1999/xlink" x="0px" y="0px" width="93.542px"
	 height="93.545px" viewBox="0 0 93.542 93.545" xml:space="preserve">
<g>
	<linearGradient id="SVGID_1_" gradientUnits="userSpaceOnUse" x1="46.5703" y1="2.5576" x2="46.9658" y2="89.5809">
		<stop  offset="0" style="stop-color:#00003B"/>
		<stop  offset="0.5275" style="stop-color:#697096"/>
		<stop  offset="1" style="stop-color:#000040"/>
	</linearGradient>
	<path fill="url(#SVGID_1_)" d="M93.542,76.537c0,9.393-7.615,17.008-17.008,17.008H17.008C7.613,93.545,0,85.93,0,76.537V17.008
		C0,7.615,7.613,0,17.008,0h59.527c9.393,0,17.008,7.615,17.008,17.008V76.537z"/>
	<g>
		<circle fill="#FFFFFF" cx="46.771" cy="47.774" r="35.996"/>
		<radialGradient id="SVGID_2_" cx="46.77" cy="47.7744" r="33.1162" gradientUnits="userSpaceOnUse">
			<stop  offset="0" style="stop-color:#00003B"/>
			<stop  offset="0.5275" style="stop-color:#697096"/>
			<stop  offset="1" style="stop-color:#000040"/>
		</radialGradient>
		<circle fill="url(#SVGID_2_)" cx="46.77" cy="47.774" r="33.116"/>
		<circle fill="#FFFFFF" cx="46.773" cy="47.772" r="5.216"/>
		<g>
			<path fill="#FFFFFF" d="M64.669,24.526c0,0-4.575-6.259-13.262-6.696c0,0-12.562,5.499-7.849,22.985c0,0,3.347-1.732,6.903,0.191
				C50.462,41.007,51.907,26.267,64.669,24.526z"/>
			<path fill="#FFFFFF" d="M39.883,19.271c0,0-7.744-0.371-13.541,6.116c0,0-3.607,13.23,12.961,20.541c0,0,0.754-3.691,4.484-5.252
				C43.787,40.677,33.223,30.296,39.883,19.271z"/>
			<path fill="#FFFFFF" d="M20.266,35.241c0,0-5.15,5.795-3.742,14.379c0,0,8.031,11.116,24.125,2.813c0,0-2.4-2.904-1.271-6.787
				C39.377,45.646,24.664,47.349,20.266,35.241z"/>
			<path fill="#FFFFFF" d="M20.381,60.498c0,0,1.275,7.646,8.84,11.941c0,0,13.695,0.73,17.339-17.009c0,0-3.767,0.043-6.081-3.273
				C40.479,52.157,32.566,64.678,20.381,60.498z"/>
			<path fill="#FFFFFF" d="M40.109,76.287c0,0,6.751,3.811,14.843,0.619c0,0,9.168-10.197-2.348-24.175c0,0-2.332,2.959-6.367,2.678
				C46.237,55.409,51.013,69.43,40.109,76.287z"/>
			<path fill="#FFFFFF" d="M64.8,70.85c0,0,7.207-2.861,9.805-11.164c0,0-2.18-13.54-20.288-13.353c0,0,0.836,3.672-1.916,6.635
				C52.401,52.968,66.312,58.056,64.8,70.85z"/>
			<path fill="#FFFFFF" d="M76.062,48.245c0,0,2.297-7.404-2.532-14.639c0,0-11.907-6.807-23.131,7.404c0,0,3.383,1.654,3.961,5.656
				C54.36,46.667,67.054,39.038,76.062,48.245z"/>
		</g>
	</g>
</g>
</svg>
