<svg xmlns="http://www.w3.org/2000/svg" viewBox="0 0 16 16" class="design-iconfont" width="128" height="128">
  <path d="M14,1 C15.1045695,1 16,1.8954305 16,3 L16,13 C16,14.1045695 15.1045695,15 14,15 L2,15 C0.8954305,15 0,14.1045695 0,13 L0,3 C0,1.8954305 0.8954305,1 2,1 L14,1 Z M3.4,11.6 L1.199,11.6 L1.2,13 C1.2,13.407841 1.50518815,13.7444016 1.8996497,13.7937669 L2,13.8 L3.4,13.8 L3.4,11.6 Z M11.4,2.2 L4.6,2.2 L4.6,13.8 L11.4,13.8 L11.4,2.2 Z M14.8,11.6 L12.6,11.6 L12.6,13.8 L14,13.8 C14.407841,13.8 14.7444016,13.4948119 14.7937669,13.1003503 L14.8,13 L14.8,11.6 Z M14.8,8.6 L12.6,8.6 L12.6,10.4 L14.8,10.4 L14.8,8.6 Z M3.4,8.6 L1.199,8.6 L1.199,10.4 L3.4,10.4 L3.4,8.6 Z M6.4,6.5 C6.4,6.03362331 6.90878274,5.74555542 7.30869745,5.98550424 L7.30869745,5.98550424 L9.80869745,7.48550424 C10.1971008,7.71854628 10.1971008,8.28145372 9.80869745,8.51449576 L9.80869745,8.51449576 L7.30869745,10.0144958 C6.90878274,10.2544446 6.4,9.96637669 6.4,9.5 L6.4,9.5 Z M7.6,7.559 L7.6,8.44 L8.334,8 L7.6,7.559 Z M14.8,5.6 L12.6,5.6 L12.6,7.4 L14.8,7.4 L14.8,5.6 Z M3.4,5.6 L1.199,5.6 L1.199,7.4 L3.4,7.4 L3.4,5.6 Z M14,2.2 L12.6,2.2 L12.6,4.4 L14.8,4.4 L14.8,3 C14.8,2.59215895 14.4948119,2.25559842 14.1003503,2.20623314 L14,2.2 Z M3.4,2.2 L2,2.2 C1.59215895,2.2 1.25559842,2.50518815 1.20623314,2.8996497 L1.2,3 L1.199,4.4 L3.4,4.4 L3.4,2.2 Z" fill-rule="nonzero"></path>
</svg>