<svg xmlns="http://www.w3.org/2000/svg" viewBox="0 0 16 16" class="design-iconfont" width="128" height="128">
  <path d="M5.6,1 L5.6,2 L10.4,2 L10.4,1 L11.6,1 L11.6,2 L13.5,2 C14.6045695,2 15.5,2.8954305 15.5,4 L15.5,13 C15.5,14.1045695 14.6045695,15 13.5,15 L2.5,15 C1.3954305,15 0.5,14.1045695 0.5,13 L0.5,4 C0.5,2.8954305 1.3954305,2 2.5,2 L4.4,2 L4.4,1 L5.6,1 Z M14.3,6.6 L1.7,6.6 L1.7,13 C1.7,13.407841 2.00518815,13.7444016 2.3996497,13.7937669 L2.5,13.8 L13.5,13.8 C13.907841,13.8 14.2444016,13.4948119 14.2937669,13.1003503 L14.3,13 L14.3,6.6 Z M5.25569371,10.9 L5.25569371,12.1 L3.75569371,12.1 L3.75569371,10.9 L5.25569371,10.9 Z M8.75569371,10.9 L8.75569371,12.1 L7.25569371,12.1 L7.25569371,10.9 L8.75569371,10.9 Z M12.2481021,10.9 L12.2481021,12.1 L10.7556937,12.1 L10.7556937,10.9 L12.2481021,10.9 Z M5.2518979,7.9 L5.2518979,9.1 L3.7518979,9.1 L3.7518979,7.9 L5.2518979,7.9 Z M8.7518979,7.9 L8.7518979,9.1 L7.2518979,9.1 L7.2518979,7.9 L8.7518979,7.9 Z M12.2443063,7.9 L12.2443063,9.1 L10.7518979,9.1 L10.7518979,7.9 L12.2443063,7.9 Z M4.4,3.2 L2.5,3.2 C2.09215895,3.2 1.75559842,3.50518815 1.70623314,3.8996497 L1.7,4 L1.7,5.4 L14.3,5.4 L14.3,4 C14.3,3.59215895 13.9948119,3.25559842 13.6003503,3.20623314 L13.5,3.2 L11.6,3.2 L11.6,4 L10.4,4 L10.4,3.2 L5.6,3.2 L5.6,4 L4.4,4 L4.4,3.2 Z" fill-rule="nonzero"></path>
</svg>