<svg xmlns="http://www.w3.org/2000/svg" viewBox="0 0 16 16" class="design-iconfont" width="128" height="128">
  <path d="M15,13 C15,14.1045695 14.1045695,15 13,15 L3,15 C1.8954305,15 1,14.1045695 1,13 L1,3 C1,1.8954305 1.8954305,1 3,1 L13,1 C14.1045695,1 15,1.8954305 15,3 L15,13 Z M5.4,10.6 L2.2,10.6 L2.2,13 C2.2,13.407841 2.50518815,13.7444016 2.8996497,13.7937669 L3,13.8 L5.4,13.8 L5.4,10.6 Z M9.4,10.6 L6.6,10.6 L6.6,13.8 L9.4,13.8 L9.4,10.6 Z M13.8,10.6 L10.6,10.6 L10.6,13.8 L13,13.8 C13.407841,13.8 13.7444016,13.4948119 13.7937669,13.1003503 L13.8,13 L13.8,10.6 Z M5.4,6.6 L2.2,6.6 L2.2,9.4 L5.4,9.4 L5.4,6.6 Z M9.4,6.6 L6.6,6.6 L6.6,9.4 L9.4,9.4 L9.4,6.6 Z M13.8,6.6 L10.6,6.6 L10.6,9.4 L13.8,9.4 L13.8,6.6 Z M13,2.2 L3,2.2 C2.59215895,2.2 2.25559842,2.50518815 2.20623314,2.8996497 L2.2,3 L2.2,5.4 L13.8,5.4 L13.8,3 C13.8,2.59215895 13.4948119,2.25559842 13.1003503,2.20623314 L13,2.2 Z" fill-rule="nonzero"></path>
</svg>