<svg xmlns="http://www.w3.org/2000/svg" viewBox="0 0 41 40" width="100" height="100" class="design-iconfont">
  <g fill="none" fill-rule="evenodd">
    <path d="M33.75,2.5 C36.5114237,2.5 38.75,4.73857625 38.75,7.5 L38.75,10 L1.25,10 L1.25,7.5 C1.25,4.73857625 3.48857625,2.5 6.25,2.5 L33.75,2.5 Z M33.75,5 C33.0596441,5 32.5,5.55964406 32.5,6.25 C32.5,6.94035594 33.0596441,7.5 33.75,7.5 C34.4403559,7.5 35,6.94035594 35,6.25 C35,5.55964406 34.4403559,5 33.75,5 Z M28.75,5 C28.0596441,5 27.5,5.55964406 27.5,6.25 C27.5,6.94035594 28.0596441,7.5 28.75,7.5 C29.4403559,7.5 30,6.94035594 30,6.25 C30,5.55964406 29.4403559,5 28.75,5 Z M23.75,5 C23.0596441,5 22.5,5.55964406 22.5,6.25 C22.5,6.94035594 23.0596441,7.5 23.75,7.5 C24.4403559,7.5 25,6.94035594 25,6.25 C25,5.55964406 24.4403559,5 23.75,5 Z" fill="#2465FF" transform="translate(.5)"/>
    <path d="M1.25,12.5 L38.75,12.5 L38.75,32.5 C38.75,35.2614237 36.5114237,37.5 33.75,37.5 L6.25,37.5 C3.48857625,37.5 1.25,35.2614237 1.25,32.5 L1.25,12.5 Z" fill="#2465FF" transform="translate(.5)"/>
    <path d="M21.381966,19.440983 L23.618034,20.559017 L18.618034,30.559017 L16.381966,29.440983 L21.381966,19.440983 Z M11.6161165,21.6161165 L13.3838835,23.3838835 L11.7675,25 L13.3838835,26.6161165 L11.6161165,28.3838835 L9.11611652,25.8838835 C8.68220064,25.4499676 8.63398777,24.7764066 8.9714779,24.2892362 L9.11611652,24.1161165 L11.6161165,21.6161165 Z M28.3838835,21.6161165 L30.8838835,24.1161165 C31.3177994,24.5500324 31.3660122,25.2235934 31.0285221,25.7107638 L30.8838835,25.8838835 L28.3838835,28.3838835 L26.6161165,26.6161165 L28.2325,25 L26.6161165,23.3838835 L28.3838835,21.6161165 Z" fill="#3AE1EC" transform="translate(.5)"/>
  </g>
</svg>
