<svg xmlns="http://www.w3.org/2000/svg" viewBox="0 0 16 16" class="design-iconfont" width="128" height="128">
  <g fill="none" fill-rule="evenodd">
    <path d="M10.5823716,0 C11.922081,0 13.0081301,0.884361834 13.0081301,1.97527744 L13.0081301,8.75642988 C13.0081301,9.84734548 11.922081,10.7317073 10.5823716,10.7317073 L2.42575852,10.7317073 C1.08604908,10.7317073 0,9.84734548 0,8.75642988 L0,1.97527744 C0,0.884361834 1.08604908,0 2.42575852,0 L10.5823716,0 Z" fill="#2465FF" fill-rule="nonzero" transform="translate(.036751 2.634146)"></path>
    <path d="M5.91067819,3.25576929 L8.34039227,4.97394342 C8.55683832,5.12700341 8.60822288,5.42654723 8.45516289,5.64299327 C8.4236985,5.68748787 8.38488687,5.72629951 8.34039227,5.75776389 L5.91067819,7.47593803 C5.6581578,7.65450801 5.30869001,7.59455936 5.13012002,7.34203897 C5.06325402,7.24748203 5.02734863,7.13451994 5.02734863,7.01870942 L5.02734863,3.7129979 C5.02734863,3.40371844 5.27806917,3.1529979 5.58734863,3.1529979 C5.70315916,3.1529979 5.81612125,3.18890328 5.91067819,3.25576929 Z" fill="#3BE1ED" transform="translate(.036751 2.634146)"></path>
    <path d="M15.8967796,2.56708171 C15.9163842,2.61243769 15.9264978,2.66132639 15.9264978,2.71073797 L15.9264978,7.51911573 C15.9264978,7.7190829 15.7643924,7.88118832 15.5644253,7.88118832 C15.5150137,7.88118832 15.466125,7.87107471 15.420769,7.85147012 L13.6981981,6.75667053 L13.6981981,3.4731832 L15.420769,2.37838359 C15.6043233,2.29904442 15.8174405,2.38352745 15.8967796,2.56708171 Z" fill="#2465FF" fill-rule="nonzero" transform="translate(.036751 2.634146)"></path>
  </g>
</svg>