<svg xmlns="http://www.w3.org/2000/svg" viewBox="0 0 41 40" width="100" height="100" class="design-iconfont">
  <g fill="none" fill-rule="evenodd">
    <path d="M1.25,12.5 L1.25,32.5 C1.25,35.2614237 3.48857625,37.5 6.25,37.5 L33.75,37.5 C36.5114237,37.5 38.75,35.2614237 38.75,32.5 L38.75,12.5 L1.25,12.5 Z" fill="#2465FF" transform="translate(.5)"/>
    <path d="M16.25,21.0053096 L16.25,28.9946904 C16.25,29.6850464 16.8096441,30.2446904 17.5,30.2446904 C17.7342746,30.2446904 17.9638342,30.1788536 18.1624987,30.0546883 L24.5540034,26.0599979 C25.1394241,25.69411 25.3173905,24.922922 24.9515026,24.3375013 C24.8509017,24.1765399 24.7149648,24.040603 24.5540034,23.9400021 L18.1624987,19.9453117 C17.577078,19.5794238 16.80589,19.7573902 16.4400021,20.3428109 C16.3158368,20.5414754 16.25,20.7710349 16.25,21.0053096 Z" fill="#3AE1EC" transform="translate(.5)"/>
    <path d="M5.50412541,2.55525641 L9.226,9.99948301 L1.25,10 L1.25,7.5 C1.25,4.99204866 3.09647738,2.91536523 5.50412541,2.55525641 Z M12.976,2.49948301 L16.726,9.99948301 L12.022,9.99948301 L8.272,2.49948301 L12.976,2.49948301 Z M20.476,2.49948301 L24.226,9.99948301 L19.522,9.99948301 L15.772,2.49948301 L20.476,2.49948301 Z M27.976,2.49948301 L31.726,9.99948301 L27.022,9.99948301 L23.272,2.49948301 L27.976,2.49948301 Z M33.75,2.5 C36.5114237,2.5 38.75,4.73857625 38.75,7.5 L38.75,7.5 L38.75,10 L34.522,9.99948301 L30.772,2.49948301 Z" fill="#2465FF" transform="translate(.5)"/>
  </g>
</svg>
